<?xml version="1.0" encoding="UTF-8"?>
<svg id="Layer_2" data-name="Layer 2" xmlns="http://www.w3.org/2000/svg" version="1.1" viewBox="0 0 389 158">
  <defs>
    <style>
      .cls-1 {
        fill: #fff;
        font-family: SnellRoundhand-Bold, 'Snell Roundhand';
        font-size: 32px;
        font-weight: 700;
      }

      .cls-1, .cls-2 {
        isolation: isolate;
      }

      .cls-3 {
        fill: #5eccf5;
        stroke-width: 0px;
      }
    </style>
  </defs>
  <g id="Logo">
    <g id="Icon_Blue" data-name="Icon Blue">
      <g id="Icon_Blue-2" data-name="Icon Blue-2">
        <path class="cls-3" d="M2.2,152.3c105.7,5.7,215.1-86,382,.5-156.1-75.2-330.7,23-382-.5"/>
        <path class="cls-3" d="M155.1,128.7s139.5-25.4,227.6,23.1C376,143.7,249.5,3.8,249.5,3.8l-94.4,125Z"/>
        <path class="cls-3" d="M95.4,143.7c50-16.4,145.6-21.6,145.6-21.6l-80.7-80.7s-61.2,97.8-64.9,102.3"/>
        <path class="cls-3" d="M120,43.7c0,23.1-18.7,41.8-41.8,41.8s-41.8-18.7-41.8-41.8S55.1,1.9,78.2,1.9s41.8,18.7,41.8,41.8"/>
        <path class="cls-3" d="M30.3,139.7l-12.7-29.8-9,29.8h9.7v12.7h2.2v-12.7h9.7,0Z"/>
        <path class="cls-3" d="M78.2,136.6l-11.2-26.3-7.9,26.3h8.5v11.2h2v-11.2h8.5Z"/>
        <path class="cls-3" d="M54.1,139.6l-13.4-31.4-9.4,31.4h10.2v13.4h2.4v-13.4h10.2,0Z"/>
        <path class="cls-3" d="M99.4,131.9l-13.3-31.4-9.4,31.4h10.2v13.4h2.4v-13.4h10.2,0Z"/>
        <path class="cls-3" d="M39.2,144.3l-9.1-21.5-6.5,21.5h7v9.1h1.6v-9.1s7,0,7,0Z"/>
        <path class="cls-3" d="M107.2,134.1l-8.5-20.1-6,20.1h6.5v8.5h1.5v-8.5h6.5Z"/>
        <path class="cls-3" d="M65,140.5l-10.4-24.4-7.3,24.4h7.9v10.4h1.8v-10.4h7.9Z"/>
        <path class="cls-3" d="M85,138.1l-7.6-17.9-5.4,17.9h5.8v7.6h1.3v-7.6h5.8Z"/>
      </g>
      <g id="Text_Inside" data-name="Text Inside">
        <g class="cls-2">
          <text class="cls-1" transform="translate(119.6 134.5) rotate(-14.6)"><tspan x="0" y="0">T</tspan></text>
        </g>
        <g class="cls-2">
          <text class="cls-1" transform="translate(141.9 128.7) rotate(-13.6)"><tspan x="0" y="0">r</tspan></text>
        </g>
        <g class="cls-2">
          <text class="cls-1" transform="translate(153.8 125.8) rotate(-12.3)"><tspan x="0" y="0">a</tspan></text>
        </g>
        <g class="cls-2">
          <text class="cls-1" transform="translate(169.9 122.3) rotate(-10.6)"><tspan x="0" y="0">v</tspan></text>
        </g>
        <g class="cls-2">
          <text class="cls-1" transform="translate(184.9 119.5) rotate(-8.7)"><tspan x="0" y="0">e</tspan></text>
        </g>
        <g class="cls-2">
          <text class="cls-1" transform="translate(197.6 117.6) rotate(-7.2)"><tspan x="0" y="0">l</tspan></text>
        </g>
        <g class="cls-2">
          <text class="cls-1" transform="translate(213.9 115.3) rotate(-2.4)"><tspan x="0" y="0">W</tspan></text>
        </g>
        <g class="cls-2">
          <text class="cls-1" transform="translate(245.6 114.3) rotate(1.3)"><tspan x="0" y="0">i</tspan></text>
        </g>
        <g class="cls-2">
          <text class="cls-1" transform="translate(253.7 114.5) rotate(2.9)"><tspan x="0" y="0">t</tspan></text>
        </g>
        <g class="cls-2">
          <text class="cls-1" transform="translate(262.4 114.9) rotate(5.2)"><tspan x="0" y="0">h</tspan></text>
        </g>
        <g class="cls-2">
          <text class="cls-1" transform="translate(285.7 117) rotate(11.4)"><tspan x="0" y="0">M</tspan></text>
        </g>
        <g class="cls-2">
          <text class="cls-1" transform="translate(316.6 123.6) rotate(15.6)"><tspan x="0" y="0">e</tspan></text>
        </g>
      </g>
    </g>
  </g>
</svg>