<?xml version="1.0" standalone="no"?>
<!DOCTYPE svg PUBLIC "-//W3C//DTD SVG 1.1//EN" "http://www.w3.org/Graphics/SVG/1.1/DTD/svg11.dtd" >
<svg xmlns="http://www.w3.org/2000/svg">
<defs>
  <font id="Nomadicode" horiz-adv-x="256">
    <font-face font-family="Nomadicode"
      units-per-em="256" ascent="256"
      descent="0" />
    <missing-glyph horiz-adv-x="0" />
    <glyph glyph-name="zoom"
      unicode="&#xEA02;"
      horiz-adv-x="256" d="M92 247.364C90.625 247.095 85.749 246.002 81.164 244.935C46.912 236.969 19.66 209.633 10.781 174.336C7.639 161.849 7.639 142.151 10.781 129.664C19.702 94.198 46.198 67.702 81.664 58.781C88.624 57.03 93.366 56.558 104 56.558C124.999 56.558 140.532 61.241 157.823 72.785L166.147 78.342L199.071 45.429L231.995 12.517L237.739 18.261L243.483 24.005L210.571 56.929L177.658 89.853L183.215 98.177C194.759 115.468 199.442 131.001 199.442 152C199.442 162.634 198.97 167.376 197.219 174.336C188.351 209.59 161.72 236.359 126.855 245.067C118.711 247.101 97.719 248.484 92 247.364M118.792 230.415C151.743 223.637 175.598 199.761 182.421 166.73C185.303 152.775 183.93 137.831 178.421 123.193C171.002 103.483 152.565 85.016 132.925 77.624C113.224 70.208 94.05 70.31 74.359 77.936C39.544 91.418 18.113 130.462 25.585 166.792C34.58 210.527 76.469 239.12 118.792 230.415" />
    <glyph glyph-name="sort-tool"
      unicode="&#xEA03;"
      horiz-adv-x="256" d="M0 224L0 216L128 216L256 216L256 224L256 232L128 232L0 232L0 224M32 160L32 152L128 152L224 152L224 160L224 168L128 168L32 168L32 160M64 96L64 88L128 88L192 88L192 96L192 104L128 104L64 104L64 96M96 32L96 24L128 24L160 24L160 32L160 40L128 40L96 40L96 32" />
    <glyph glyph-name="hide"
      unicode="&#xEA04;"
      horiz-adv-x="256" d="M213.62 225.12L187.754 199.239L180.127 203.052C160.142 213.043 135.31 217.693 115.803 215.097C91.12 211.812 71.685 203.34 47.864 185.48C30.054 172.125 6.837 147.404 1.867 136.5C-0.459 131.396 -0.459 124.604 1.867 119.5C6.412 109.525 31.068 83.648 49 70.031C51.475 68.152 53.705 66.459 53.955 66.269C54.205 66.079 43.184 54.692 29.464 40.964L4.518 16.003L10.264 10.257L16.01 4.511L133.738 122.239L251.465 239.966L246.017 245.483C243.02 248.517 240.325 251 240.027 251C239.729 251 227.846 239.354 213.62 225.12M147.594 197.575C155.244 195.953 160.397 194.267 169.803 190.308L176.107 187.655L168.983 180.483L161.86 173.312L153.18 177.684C142.14 183.245 132.158 184.884 119.75 183.175C93.363 179.541 72.035 154.879 72.035 128C72.035 120.364 74.76 109.854 78.821 101.83L82.703 94.161L74.581 86.08C70.113 81.636 66.097 78 65.655 78C64.103 78 50.409 88.889 41.633 97.101C33.644 104.577 22.171 117.457 17.698 123.973C16.764 125.332 16 127.439 16 128.654C16 131.478 28.773 146.667 41.111 158.516C76.062 192.079 111.752 205.17 147.594 197.575M210.122 174.046L204.902 168.045L215.07 158.286C220.663 152.918 228.607 144.511 232.724 139.604C242.29 128.203 242.249 127.555 231.14 114.717C213.506 94.336 193.401 77.713 175.431 68.655C150.344 56.009 127.317 53.06 104 59.509C90.153 63.338 91.086 63.573 88.368 55.576C87.073 51.768 86.217 48.449 86.466 48.201C86.714 47.952 91.164 46.487 96.353 44.944C141.373 31.559 187.147 46.991 230 89.999C241.821 101.863 251.457 113.586 254.008 119.208C256.497 124.693 256.489 131.326 253.986 136.842C250.601 144.301 233.26 164.024 218.421 177.294L215.341 180.047L210.122 174.046M144.193 164.333L150.147 161.661L122.339 133.839L94.531 106.018L92.337 110.259C84.718 124.985 88.031 144.342 100.201 156.196C105.707 161.559 112.965 165.662 119.355 167.024C126.391 168.523 137.549 167.314 144.193 164.333M171.708 143.687C167.139 142.88 166.04 142.339 166.505 141.127C166.829 140.282 167.354 136.196 167.673 132.046C169.059 113.956 160.229 99.112 143.43 91.295C138.436 88.971 136.158 88.532 129 88.517C124.325 88.508 118.894 88.843 116.931 89.261L113.362 90.023L112.17 82.356C111.515 78.139 111.205 74.461 111.483 74.184C111.761 73.906 116.153 73.231 121.244 72.685C156.615 68.886 186.293 97.013 183.619 131.8C183.26 136.467 182.7 141.347 182.375 142.643C181.719 145.257 180.999 145.328 171.708 143.687" />
    <glyph glyph-name="view"
      unicode="&#xEA05;"
      horiz-adv-x="256" d="M110.785 214.518C77.262 209.035 43.685 187.781 13.745 153.092C0.39 137.619 -2.578 129.218 1.878 119.5C5.946 110.628 26.722 87.869 42.433 75.075C72.04 50.964 97.647 40.668 128 40.668C143.382 40.668 149.789 41.694 164.5 46.514C191.161 55.249 222.382 78.569 245.78 107.225C253.245 116.367 255.956 121.903 255.956 128C255.956 134.327 253.065 139.991 244.866 149.727C215.208 184.946 183.381 206.272 149.5 213.627C139.448 215.809 121.241 216.228 110.785 214.518M140.678 198.93C170.818 194.809 205.217 172.514 233.144 139C238.141 133.004 240 129.93 240 127.665C240 123.713 221.113 102.461 207.083 90.625C188.647 75.073 175.033 66.977 157.431 61.102C124.996 50.275 91.834 57.572 58.297 82.913C40.327 96.492 16 122.43 16 128.011C16 131.328 22.347 139.4 35.907 153.326C70.063 188.406 105.341 203.762 140.678 198.93M116.5 182.837C113.75 182.32 107.811 180.119 103.302 177.945C69.127 161.471 61.553 115.558 88.556 88.556C115.604 61.507 161.413 69.114 178.014 103.41C198.306 145.335 162.558 191.493 116.5 182.837M144.429 164.18C153.452 159.957 159.29 154.215 163.765 145.16C167.294 138.02 167.5 137.075 167.5 128C167.5 118.925 167.294 117.98 163.765 110.84C159.267 101.738 153.477 96.069 144.18 91.665C138.139 88.803 136.591 88.5 128 88.5C119.409 88.5 117.861 88.803 111.82 91.665C102.523 96.069 96.733 101.738 92.235 110.84C88.71 117.972 88.5 118.933 88.5 127.948C88.5 136.598 88.799 138.131 91.665 144.18C95.683 152.662 101.404 158.871 108.866 162.848C116.743 167.046 121.053 167.996 130.249 167.558C136.251 167.272 139.448 166.511 144.429 164.18" />
    <glyph glyph-name="zoom-out"
      unicode="&#xEA06;"
      horiz-adv-x="256" d="M92 247.364C90.625 247.095 85.749 246.002 81.164 244.935C46.912 236.969 19.66 209.633 10.781 174.336C7.639 161.849 7.639 142.151 10.781 129.664C19.702 94.198 46.198 67.702 81.664 58.781C88.624 57.03 93.366 56.558 104 56.558C124.999 56.558 140.532 61.241 157.823 72.785L166.147 78.342L199.071 45.429L231.995 12.517L237.739 18.261L243.483 24.005L210.571 56.929L177.658 89.853L183.215 98.177C194.759 115.468 199.442 131.001 199.442 152C199.442 162.634 198.97 167.376 197.219 174.336C188.351 209.59 161.72 236.359 126.855 245.067C118.711 247.101 97.719 248.484 92 247.364M118.792 230.415C151.743 223.637 175.598 199.761 182.421 166.73C185.303 152.775 183.93 137.831 178.421 123.193C171.002 103.483 152.565 85.016 132.925 77.624C113.224 70.208 94.05 70.31 74.359 77.936C39.544 91.418 18.113 130.462 25.585 166.792C34.58 210.527 76.469 239.12 118.792 230.415M64 152L64 144L104 144L144 144L144 152L144 160L104 160L64 160L64 152" />
    <glyph glyph-name="zoom-in"
      unicode="&#xEA07;"
      horiz-adv-x="256" d="M92 247.364C90.625 247.095 85.749 246.002 81.164 244.935C46.912 236.969 19.66 209.633 10.781 174.336C7.639 161.849 7.639 142.151 10.781 129.664C19.702 94.198 46.198 67.702 81.664 58.781C88.624 57.03 93.366 56.558 104 56.558C124.999 56.558 140.532 61.241 157.823 72.785L166.147 78.342L199.071 45.429L231.995 12.517L237.739 18.261L243.483 24.005L210.571 56.929L177.658 89.853L183.215 98.177C194.759 115.468 199.442 131.001 199.442 152C199.442 162.634 198.97 167.376 197.219 174.336C188.351 209.59 161.72 236.359 126.855 245.067C118.711 247.101 97.719 248.484 92 247.364M118.792 230.415C151.743 223.637 175.598 199.761 182.421 166.73C185.303 152.775 183.93 137.831 178.421 123.193C171.002 103.483 152.565 85.016 132.925 77.624C113.224 70.208 94.05 70.31 74.359 77.936C39.544 91.418 18.113 130.462 25.585 166.792C34.58 210.527 76.469 239.12 118.792 230.415M96 176L96 160L80 160L64 160L64 152L64 144L80 144L96 144L96 128L96 112L104 112L112 112L112 128L112 144L128 144L144 144L144 152L144 160L128 160L112 160L112 176L112 192L104 192L96 192L96 176" />
    <glyph glyph-name="bin"
      unicode="&#xEA08;"
      horiz-adv-x="256" d="M80 236L80 216L44 216L8 216L8 208L8 200L128 200L248 200L248 208L248 216L212 216L176 216L176 236L176 256L128 256L80 256L80 236M160 228L160 216L128 216L96 216L96 228L96 240L128 240L160 240L160 228M32.227 103.75L32.5 23.5L34.953 18.516C37.977 12.369 44.458 5.938 50.75 2.839L55.5 0.5L128 0.5L200.5 0.5L205.484 2.953C211.631 5.977 218.062 12.458 221.161 18.75L223.5 23.5L223.773 103.75L224.046 184L216.041 184L208.035 184L207.768 105.073C207.503 27.127 207.474 26.112 205.438 23.385C204.304 21.866 202.134 19.696 200.615 18.562C197.887 16.525 196.992 16.5 128 16.5C59.008 16.5 58.113 16.525 55.385 18.562C53.866 19.696 51.696 21.866 50.562 23.385C48.526 26.112 48.497 27.127 48.232 105.073L47.965 184L39.959 184L31.954 184L32.227 103.75M80 96L80 48L88 48L96 48L96 96L96 144L88 144L80 144L80 96M120 96L120 48L128 48L136 48L136 96L136 144L128 144L120 144L120 96M160 96L160 48L168 48L176 48L176 96L176 144L168 144L160 144L160 96" />
    <glyph glyph-name="e-remove"
      unicode="&#xEA09;"
      horiz-adv-x="256" d="M33.985 221.485L28.539 215.97L72.515 171.985L116.491 128L72.503 84.003L28.515 40.007L34.261 34.261L40.007 28.515L84.003 72.503L128 116.491L171.997 72.503L215.993 28.515L221.739 34.261L227.485 40.007L183.497 84.003L139.509 128L183.497 171.997L227.485 215.993L221.739 221.739L215.993 227.485L171.997 183.497L128 139.509L84.246 183.254C60.181 207.314 40.253 227 39.962 227C39.67 227 36.981 224.518 33.985 221.485" />
    <glyph glyph-name="shopping-bag"
      unicode="&#xEA0A;"
      horiz-adv-x="256" d="M117.402 254.514C108.529 252.584 101.383 248.568 94.407 241.593C83.319 230.504 80.046 220.533 80.017 197.75L80 184L56.5 184C43.575 184 33 183.87 33 183.712C33 183.554 28.275 150.383 22.5 110C16.725 69.617 12 34.213 12 31.325C12 19.921 19.268 8.471 29.786 3.306L35.5 0.5L125.923 0.229C227.694 -0.076 222.747 -0.406 232.242 7.335C239.094 12.92 243.275 20.886 243.797 29.349C244.057 33.556 240.977 57.933 234.049 106.5C228.479 145.55 223.665 178.963 223.35 180.75L222.777 184L199.389 184L176 184L175.983 197.75C175.954 220.538 172.823 230.108 161.724 241.328C154.043 249.093 148.007 252.504 138.457 254.477C129.705 256.2850000000001 125.574 256.292 117.402 254.514M141.25 237.145C147.53 234.073 154.018 227.642 157.047 221.484C159.292 216.923 159.527 215.122 159.817 200.25L160.135 184L128.067 184L96 184L96 198.874C96 214.952 96.765 218.665 101.57 225.926C104.678 230.623 112.017 236.357 117.665 238.502C123.485 240.713 135.353 240.03 141.25 237.145M80 148L80 128L88 128L96 128L96 148L96 168L128 168L160 168L160 148L160 128L168 128L176 128L176 148L176 168L192.455 168L208.909 168L209.483 164.75C211.645 152.516 228 34.767 228 31.442C228 26.817 225.239 21.972 220.677 18.592C217.861 16.506 217.603 16.5 128 16.5C38.397 16.5 38.139 16.506 35.323 18.592C30.761 21.972 28 26.817 28 31.442C28 34.767 44.355 152.516 46.517 164.75L47.091 168L63.545 168L80 168L80 148" />
    <glyph glyph-name="globe"
      unicode="&#xEA0B;"
      horiz-adv-x="256" d="M111.635 254.935C63.315 248.238 22.143 214.556 7.104 169.42C1.966 154 0.556 145.08 0.556 128C0.556 105.587 4.917 87.291 14.609 69.041C33.143 34.146 64.68 10.615 104 2.344C115.734 -0.125 140.266 -0.125 152 2.344C191.32 10.615 222.857 34.146 241.391 69.041C251.083 87.291 255.444 105.587 255.444 128C255.444 150.413 251.083 168.709 241.391 186.959C222.946 221.687 191.061 245.557 152.5 253.506C142.876 255.49 121.126 256.251 111.635 254.935M120 219.5L120 200L100.983 200L81.966 200L84.618 205.25C92.171 220.207 104.237 232.72 115.5 237.278C117.7 238.169 119.612 238.92 119.75 238.948C119.888 238.977 120 230.225 120 219.5M148.5 232.947C156.407 227.59 165.908 216.09 171.382 205.25L174.034 200L155.017 200L136 200L136 219.492L136 238.984L140.25 237.321C142.588 236.406 146.3 234.438 148.5 232.947M75.547 221.408C73.066 217.631 69.566 211.269 67.768 207.271L64.5 200.002L53.682 200.001L42.864 200L44.926 202.896C46.942 205.727 54.505 212.518 62.5 218.675C66.764 221.959 79.215 229.119 79.743 228.591C79.916 228.417 78.029 225.185 75.547 221.408M193.5 218.681C201.544 212.474 209.062 205.721 211.074 202.896L213.136 200L202.318 200.001L191.5 200.002L188.232 207.271C186.434 211.269 182.947 217.611 180.482 221.363C178.017 225.116 176 228.41 176 228.685C176 229.531 189.268 221.946 193.5 218.681M58.596 182.25C55.759 173.047 52.049 149.914 52.018 141.25L52 136L33.981 136L15.962 136L16.429 138.25C16.686 139.487 17.39 143.579 17.993 147.341C19.466 156.527 23.491 169.018 27.631 177.25L31.025 184L45.08 184C58.004 184 59.091 183.859 58.596 182.25M120 160L120 136L94 136L68 136L68.018 140.75C68.055 150.181 73.305 179.448 75.637 183.221C75.901 183.65 85.991 184 98.059 184L120 184L120 160M182.737 175C185.225 165.548 188 147.338 188 140.466L188 136L162 136L136 136L136 160.019L136 184.038L158.25 183.769L180.5 183.5L182.737 175M228.369 177.25C232.509 169.018 236.534 156.527 238.007 147.341C238.61 143.579 239.314 139.487 239.571 138.25L240.038 136L222.019 136L204 136L203.982 141.25C203.951 149.914 200.241 173.047 197.404 182.25C196.909 183.859 197.996 184 210.92 184L224.975 184L228.369 177.25M52.018 114.75C52.049 106.086 55.759 82.953 58.596 73.75C59.091 72.141 58.004 72 45.08 72L31.025 72L27.631 78.75C23.491 86.982 19.466 99.473 17.993 108.659C17.39 112.421 16.686 116.512 16.429 117.75L15.962 120L33.981 120L52 120L52.018 114.75M120 95.981L120 71.962L97.75 72.231L75.5 72.5L73.263 81C70.775 90.452 68 108.662 68 115.534L68 120L94 120L120 120L120 95.981M188 115.534C188 108.662 185.225 90.452 182.737 81L180.5 72.5L158.25 72.231L136 71.962L136 95.981L136 120L162 120L188 120L188 115.534M239.571 117.75C239.314 116.512 238.61 112.421 238.007 108.659C236.534 99.473 232.509 86.982 228.369 78.75L224.975 72L210.92 72C197.996 72 196.909 72.141 197.404 73.75C200.241 82.953 203.951 106.086 203.982 114.75L204 120L222.019 120L240.038 120L239.571 117.75M67.768 48.729C69.566 44.731 73.053 38.389 75.518 34.637C77.983 30.884 80 27.59 80 27.315C80 26.469 66.732 34.054 62.5 37.319C54.456 43.526 46.938 50.279 44.926 53.104L42.864 56L53.682 55.999L64.5 55.998L67.768 48.729M120 36.508L120 17.016L115.75 18.679C104.375 23.131 92.267 35.604 84.618 50.75L81.966 56L100.983 56L120 56L120 36.508M171.382 50.75C163.733 35.604 151.625 23.131 140.25 18.679L136 17.016L136 36.508L136 56L155.017 56L174.034 56L171.382 50.75M211.074 53.104C209.062 50.279 201.544 43.526 193.5 37.319C189.268 34.054 176 26.469 176 27.315C176 27.59 178.017 30.884 180.482 34.637C182.947 38.389 186.434 44.731 188.232 48.729L191.5 55.998L202.318 55.999L213.136 56L211.074 53.104" />
    <glyph glyph-name="tag-cut"
      unicode="&#xEA0C;"
      horiz-adv-x="256" d="M18.24 237.74L0 219.48L0 183.988L0 148.495L72.001 76.499L144.001 4.504L197.749 58.251L251.496 111.999L179.501 183.999L107.505 256L71.992 256L36.48 256L18.24 237.74M164.501 175.999L228.496 111.999L186.249 69.751L144.001 27.504L80.001 91.499L16 155.494L16 183.984L16 212.474L29.737 226.237L43.473 240L71.99 240L100.506 240L164.501 175.999M64 206.693C59.092 205.146 50.721 196.478 49.216 191.384C46.446 182.008 48.399 174.533 55.466 167.466C65.583 157.349 78.417 157.349 88.534 167.466C98.651 177.583 98.651 190.417 88.534 200.534C81.497 207.57 73.307 209.626 64 206.693M77.545 189.545C79.093 187.998 80 185.948 80 184C80 182.052 79.093 180.002 77.545 178.455C75.998 176.907 73.948 176 72 176C70.052 176 68.002 176.907 66.455 178.455C64.907 180.002 64 182.052 64 184C64 185.948 64.907 187.998 66.455 189.545C68.002 191.093 70.052 192 72 192C73.948 192 75.998 191.093 77.545 189.545" />
    <glyph glyph-name="map-pin"
      unicode="&#xEA0D;"
      horiz-adv-x="256" d="M114 254.449C110.425 253.683 103.329 250.996 98.232 248.476C70.985 235.009 57.769 203.974 67.416 176.113C73.886 157.428 90.233 133.371 114.899 106.232C122.9 97.43 126.269 95.501 130.851 97.098C135.695 98.786 159.887 126.717 171.477 144C193.53 176.888 197.056 197.236 184.957 221.778C172.733 246.57 142.409 260.533 114 254.449M144.172 237.139C163.362 230.449 176 213.168 176 193.616C176 178.673 158.413 149.209 132.06 120L128 115.5L123.94 120C97.651 149.137 80 178.631 80 193.419C80 214.532 94.315 232.448 116 238.475C123.116 240.453 136.483 239.819 144.172 237.139M231 211.31C217.525 207.193 206.411 203.737 206.301 203.63C205.634 202.978 210.516 189.003 211.407 189.014C212.008 189.022 218.563 190.822 225.974 193.014C233.385 195.206 239.573 197 239.724 197C239.876 197 239.994 164.713 239.987 125.25L239.975 53.5L203.946 39.136L167.917 24.772L128.644 40.386C107.045 48.974 88.715 56 87.912 56C87.109 56 70.723 49.7 51.5 42C32.277 34.3 16.425 28 16.274 28C16.123 28 16 60.107 16 99.349L16 170.697L32.25 177.005C41.188 180.475 48.891 183.657 49.37 184.077C49.848 184.496 48.983 188.044 47.446 191.96C45.306 197.415 44.284 198.946 43.076 198.506C42.209 198.19 32.167 194.234 20.761 189.715L0.021 181.5L0.011 92.877L0 4.253L44.026 21.747L88.052 39.241L127.34 23.62C148.948 15.029 167.272 8 168.059 8C168.846 8 188.949 15.762 212.732 25.25L255.974 42.5L255.987 130.75C255.994 179.287 255.887 218.954 255.75 218.897C255.613 218.841 244.475 215.426 231 211.31M120 214.693C115.092 213.146 106.721 204.478 105.216 199.384C102.446 190.008 104.399 182.533 111.466 175.466C121.583 165.349 134.417 165.349 144.534 175.466C154.651 185.583 154.651 198.417 144.534 208.534C137.497 215.57 129.307 217.626 120 214.693M133.545 197.545C138.506 192.585 134.991 184 128 184C126.052 184 124.002 184.907 122.455 186.455C117.494 191.415 121.009 200 128 200C129.948 200 131.998 199.093 133.545 197.545" />
    <glyph glyph-name="user"
      unicode="&#xEA0E;"
      horiz-adv-x="256" d="M114.104 254.454C96.282 250.587 79.28 237.305 71.201 220.936C65.541 209.469 64.035 201.707 64.035 184C64.035 166.293 65.541 158.531 71.201 147.064C83.794 121.55 113.166 107.515 141.436 113.504C165.251 118.549 185.451 138.749 190.496 162.564C192.449 171.782 192.449 196.218 190.496 205.436C183.264 239.573 148.459 261.906 114.104 254.454M137.114 239.001C155.399 235.611 171.49 219.508 174.979 201.109C176.285 194.222 176.298 173.883 175.001 166.886C171.447 147.717 154.745 131.785 135 128.728C110.301 124.905 85.539 142.403 80.999 166.886C79.711 173.831 79.711 194.169 80.999 201.114C82.624 209.877 88.143 219.878 94.923 226.346C106.493 237.381 121.529 241.891 137.114 239.001M97 94.456C65.785 90.946 36.18 83.409 25.938 76.364C18.745 71.416 16.466 68.704 12.187 60L8.5 52.5L8.176 26.25L7.853 0L128 0L248.147 0L247.824 26.25L247.5 52.5L244.106 59.741C240.411 67.624 233.312 75.27 226.427 78.782C219.33 82.401 195.184 89.062 180 91.588C153.577 95.985 120.7 97.121 97 94.456M157.778 78.464C185.312 75.592 214.156 68.273 222.697 61.992C225.08 60.239 227.844 56.923 229.177 54.218C231.277 49.953 231.53 47.891 231.816 32.75L232.132 16L128.066 16L24 16L24 31.374C24 57.139 27.216 61.922 49.233 68.898C79.562 78.507 121.74 82.224 157.778 78.464" />
    <glyph glyph-name="img-rotate-right"
      unicode="&#xEA0F;"
      horiz-adv-x="256" d="M89.991 245.491L84.55 239.981L96.509 227.991L108.469 216L84.484 215.992C71.293 215.988 57.575 215.522 54 214.955C32.566 211.559 12.335 191.338 9.024 170C8.469 166.425 8.012 151.912 8.008 137.75L8 112L16 112L24 112L24 137.451C24 152.486 24.46 165.07 25.124 168.201C27.697 180.325 36.211 190.833 47.982 196.411L54.5 199.5L100.937 199.806L147.374 200.111L121.944 225.556C107.958 239.55 96.271 251 95.973 251C95.675 251 92.983 248.521 89.991 245.491M56 88L56 8L152 8L248 8L248 88L248 168L152 168L56 168L56 88M232 109.758L232 67.516L207.998 91.502L183.996 115.488L138.244 69.744L92.492 24L82.246 24L72 24L72 88L72 152L152 152L232 152L232 109.758M105.45 126.593C95.361 122.199 92.978 108.787 100.882 100.882C107.369 94.396 116.631 94.396 123.118 100.882C135.529 113.294 121.566 133.613 105.45 126.593M208.242 68.258L232 44.516L232 34.258L232 24L173.756 24L115.511 24L149.5 58C168.194 76.7 183.713 92 183.987 92C184.261 92 195.176 81.316 208.242 68.258" />
    <glyph glyph-name="search-zoom-in"
      unicode="&#xEA10;"
      horiz-adv-x="256" d="M92 247.364C90.625 247.095 85.749 246.002 81.164 244.935C46.912 236.969 19.66 209.633 10.781 174.336C7.639 161.849 7.639 142.151 10.781 129.664C19.702 94.198 46.198 67.702 81.664 58.781C94.151 55.639 113.849 55.639 126.336 58.781C161.802 67.702 188.298 94.198 197.219 129.664C200.361 142.151 200.361 161.849 197.219 174.336C188.351 209.59 161.72 236.359 126.855 245.067C118.711 247.101 97.719 248.484 92 247.364M118.792 230.415C151.743 223.637 175.598 199.761 182.421 166.73C189.955 130.253 168.069 90.852 132.925 77.624C113.224 70.208 94.05 70.31 74.359 77.936C39.544 91.418 18.113 130.462 25.585 166.792C34.58 210.527 76.469 239.12 118.792 230.415M96 176L96 160L80 160L64 160L64 152L64 144L80 144L96 144L96 128L96 112L104 112L112 112L112 128L112 144L128 144L144 144L144 152L144 160L128 160L112 160L112 176L112 192L104 192L96 192L96 176M185.984 69.484L180.537 63.968L206.264 38.241L231.992 12.513L237.737 18.258L243.482 24.004L217.998 49.502C203.982 63.526 192.271 75 191.973 75C191.675 75 188.98 72.518 185.984 69.484" />
    <glyph glyph-name="search-zoom-out"
      unicode="&#xEA11;"
      horiz-adv-x="256" d="M92 247.364C90.625 247.095 85.749 246.002 81.164 244.935C46.912 236.969 19.66 209.633 10.781 174.336C7.639 161.849 7.639 142.151 10.781 129.664C19.702 94.198 46.198 67.702 81.664 58.781C94.151 55.639 113.849 55.639 126.336 58.781C161.802 67.702 188.298 94.198 197.219 129.664C200.361 142.151 200.361 161.849 197.219 174.336C188.351 209.59 161.72 236.359 126.855 245.067C118.711 247.101 97.719 248.484 92 247.364M118.792 230.415C151.743 223.637 175.598 199.761 182.421 166.73C189.955 130.253 168.069 90.852 132.925 77.624C113.224 70.208 94.05 70.31 74.359 77.936C39.544 91.418 18.113 130.462 25.585 166.792C34.58 210.527 76.469 239.12 118.792 230.415M64 152L64 144L104 144L144 144L144 152L144 160L104 160L64 160L64 152M185.984 69.484L180.537 63.968L206.264 38.241L231.992 12.513L237.737 18.258L243.482 24.004L217.998 49.502C203.982 63.526 192.271 75 191.973 75C191.675 75 188.98 72.518 185.984 69.484" />
    <glyph glyph-name="zoom-1"
      unicode="&#xEA12;"
      horiz-adv-x="256" d="M92 247.364C90.625 247.095 85.749 246.002 81.164 244.935C46.912 236.969 19.66 209.633 10.781 174.336C7.639 161.849 7.639 142.151 10.781 129.664C19.702 94.198 46.198 67.702 81.664 58.781C88.624 57.03 93.366 56.558 104 56.558C124.999 56.558 140.532 61.241 157.823 72.785L166.147 78.342L199.071 45.429L231.995 12.517L237.739 18.261L243.483 24.005L210.571 56.929L177.658 89.853L183.215 98.177C194.759 115.468 199.442 131.001 199.442 152C199.442 162.634 198.97 167.376 197.219 174.336C188.351 209.59 161.72 236.359 126.855 245.067C118.711 247.101 97.719 248.484 92 247.364M118.792 230.415C151.743 223.637 175.598 199.761 182.421 166.73C185.303 152.775 183.93 137.831 178.421 123.193C171.002 103.483 152.565 85.016 132.925 77.624C113.224 70.208 94.05 70.31 74.359 77.936C39.544 91.418 18.113 130.462 25.585 166.792C34.58 210.527 76.469 239.12 118.792 230.415" />
    <glyph glyph-name="btn-enlarge"
      unicode="&#xEA13;"
      horiz-adv-x="256" d="M30.3 246.148C23.115 243.651 17.567 239.571 13.969 234.139C7.731 224.722 7.933 228.528 8.23 125.925L8.5 32.5L11.12 26.914C14.45 19.813 19.813 14.45 26.914 11.12L32.5 8.5L128 8.5L223.5 8.5L229.086 11.12C236.187 14.45 241.55 19.813 244.88 26.914L247.5 32.5L247.5 128L247.5 223.5L244.88 229.086C241.55 236.187 236.187 241.55 229.086 244.88L223.5 247.5L129.5 247.728C41.087 247.942 35.191 247.848 30.3 246.148M222.655 230.359C224.557 229.457 227.325 227.129 228.806 225.187L231.5 221.656L231.5 128L231.5 34.344L228.806 30.813C223.29 23.58 229.5 24 128 24C26.5 24 32.71 23.58 27.194 30.813L24.5 34.344L24.5 128L24.5 221.656L27.18 225.169C32.686 232.388 26.245 231.952 127.849 231.977C210.488 231.998 219.527 231.844 222.655 230.359M40 184L40 152L48 152L56 152L56 170.242L56 188.485L80.998 163.502L105.997 138.518L111.739 144.261L117.482 150.003L92.498 175.002L67.515 200L85.758 200L104 200L104 208L104 216L72 216L40 216L40 184M152 208L152 200L170.242 200L188.485 200L163.502 175.002L138.518 150.003L144.261 144.261L150.003 138.518L175.002 163.502L200 188.485L200 170.242L200 152L208 152L216 152L216 184L216 216L184 216L152 216L152 208M80.747 92.253L56 67.505L56 85.753L56 104L48 104L40 104L40 72L40 40L72 40L104 40L104 48L104 56L85.758 56L67.515 56L92.487 80.987L117.458 105.973L112.013 111.487C109.019 114.519 106.327 117 106.032 117C105.736 117 94.359 105.864 80.747 92.253M143.987 111.487L138.542 105.973L163.513 80.987L188.485 56L170.242 56L152 56L152 48L152 40L184 40L216 40L216 72L216 104L208 104L200 104L200 85.758L200 67.515L175.243 92.258C161.626 105.866 150.248 117 149.958 117C149.669 117 146.981 114.519 143.987 111.487" />
    <glyph glyph-name="sort-tool-1"
      unicode="&#xEA14;"
      horiz-adv-x="256" d="M0 224L0 216L128 216L256 216L256 224L256 232L128 232L0 232L0 224M32 160L32 152L128 152L224 152L224 160L224 168L128 168L32 168L32 160M64 96L64 88L128 88L192 88L192 96L192 104L128 104L64 104L64 96M96 32L96 24L128 24L160 24L160 32L160 40L128 40L96 40L96 32" />
    <glyph glyph-name="filter"
      unicode="&#xEA15;"
      horiz-adv-x="256" d="M8 234.246L8 212.491L52 168.5L96 124.509L96 62.753L96 0.997L127.972 22.248L159.944 43.5L159.972 84.004L160 124.509L204 168.5L248 212.491L248 234.246L248 256L128 256L8 256L8 234.246M232 229.746L232 219.491L188 175.5L144 131.509L144 91.935L144 52.361L128 41.685L112 31.009L112 81.259L112 131.509L68 175.5L24 219.491L24 229.746L24 240L128 240L232 240L232 229.746" />
    <glyph glyph-name="translation"
      unicode="&#xEA16;"
      horiz-adv-x="256" d="M16.1 254.494C9.934 252.572 3.326 245.836 1.467 239.578C-0.718 232.22 -0.692 143.693 1.497 136.321C3.642 129.099 10.689 122.661 18.316 120.954L23.947 119.694L24.223 105.847L24.5 92.001L45.5 106L66.5 119.998L81.25 119.999L96 120L96 128L96 136L78.75 135.998L61.5 135.996L51 128.998L40.5 122L40.206 129L39.912 136L30.408 136C21.416 136 20.773 136.142 18.452 138.646L16 141.292L16 188.194L16 235.095L18.646 237.548L21.292 240L72 240L122.708 240L125.354 237.548L128 235.095L128 209.548L128 184L136 184L144 184L144 209.341C144 238.897 143.445 241.933 136.809 248.695C129.608 256.032 129.813 256.009 71.568 255.933C31.249 255.88 19.574 255.577 16.1 254.494M63.787 222.87L64.279 217.74L49.64 218.18L35 218.621L35 211.81L35 205L40.422 205C45.81 205 45.852 204.976 47.034 201.25C48.687 196.035 54.636 185.307 58.612 180.37L61.937 176.24L54.97 173.125C51.138 171.411 45.19 169.256 41.752 168.335C38.313 167.415 35.107 166.322 34.627 165.908C34.147 165.493 34.612 163.882 35.66 162.327C36.708 160.772 38.345 157.784 39.297 155.687C41.265 151.351 40.711 151.332 53 156.166C57.125 157.789 63.262 160.843 66.638 162.952L72.776 166.787L75.638 164.841C80.229 161.718 92.057 155.874 97.752 153.914L103.004 152.106L104.632 155.303C105.528 157.061 107.331 160.347 108.64 162.604L111.019 166.708L104.328 168.359C100.648 169.267 94.561 171.428 90.801 173.161C84.196 176.206 84.016 176.384 85.497 178.406C90.478 185.205 93.285 190.371 95.737 197.247L98.5 204.995L103.75 204.997L109 205L109 211.846L109 218.691L94 218.21L79 217.728L79 222.864L79 228L71.147 228L63.294 228L63.787 222.87M82 204.149C82 201.956 79.344 195.978 76.087 190.842L72.5 185.184L69.279 189.402C67.507 191.722 64.925 196.181 63.542 199.31L61.025 205L71.513 205C77.281 205 82 204.617 82 204.149M128.1 166.494C125.518 165.689 121.89 163.346 119.318 160.821C112.042 153.68 112 153.334 112 100C112 46.681 112.044 46.318 119.305 39.191C126.168 32.456 128.834 32 161.409 31.999L189.5 31.998L210.5 18L231.5 4.001L231.777 17.847L232.053 31.694L237.684 32.954C245.311 34.661 252.358 41.099 254.503 48.321C256.679 55.65 256.719 144.293 254.549 151.503C252.566 158.092 246.082 164.601 239.578 166.533C232.563 168.616 134.798 168.583 128.1 166.494M237.354 149.548L240 147.095L240 100.194L240 53.292L237.548 50.646C235.227 48.142 234.584 48 225.592 48L216.088 48L215.794 41L215.5 34L205 40.998L194.5 47.996L163.702 47.998L132.905 48L130.452 50.646L128 53.292L128 100.194L128 147.095L130.646 149.548L133.292 152L184 152L234.708 152L237.354 149.548M167.703 121.278C165.676 114.8 160.687 99.262 156.617 86.75L149.217 64L159.609 64C166.477 64 170 64.372 170 65.096C170 65.699 170.711 68.638 171.58 71.628L173.161 77.064L184.312 76.782L195.463 76.5L196.906 70.25L198.348 64L208.541 64L218.734 64L207.521 98.25L196.308 132.5L183.848 132.778L171.389 133.057L167.703 121.278M187.768 106.249C189.565 99.237 191.027 93.162 191.018 92.75C191.008 92.338 187.817 92 183.927 92C178.761 92 176.941 92.337 177.177 93.25C177.355 93.938 178.848 100.013 180.496 106.75C182.145 113.488 183.72 119 183.996 118.999C184.273 118.999 185.97 113.261 187.768 106.249" />
    <glyph glyph-name="hide-1"
      unicode="&#xEA17;"
      horiz-adv-x="256" d="M213.62 225.12L187.754 199.239L180.127 203.052C160.142 213.043 135.31 217.693 115.803 215.097C91.12 211.812 71.685 203.34 47.864 185.48C30.054 172.125 6.837 147.404 1.867 136.5C-0.459 131.396 -0.459 124.604 1.867 119.5C6.412 109.525 31.068 83.648 49 70.031C51.475 68.152 53.705 66.459 53.955 66.269C54.205 66.079 43.184 54.692 29.464 40.964L4.518 16.003L10.264 10.257L16.01 4.511L133.738 122.239L251.465 239.966L246.017 245.483C243.02 248.517 240.325 251 240.027 251C239.729 251 227.846 239.354 213.62 225.12M147.594 197.575C155.244 195.953 160.397 194.267 169.803 190.308L176.107 187.655L168.983 180.483L161.86 173.312L153.18 177.684C142.14 183.245 132.158 184.884 119.75 183.175C93.363 179.541 72.035 154.879 72.035 128C72.035 120.364 74.76 109.854 78.821 101.83L82.703 94.161L74.581 86.08C70.113 81.636 66.097 78 65.655 78C64.103 78 50.409 88.889 41.633 97.101C33.644 104.577 22.171 117.457 17.698 123.973C16.764 125.332 16 127.439 16 128.654C16 131.478 28.773 146.667 41.111 158.516C76.062 192.079 111.752 205.17 147.594 197.575M210.122 174.046L204.902 168.045L215.07 158.286C220.663 152.918 228.607 144.511 232.724 139.604C242.29 128.203 242.249 127.555 231.14 114.717C213.506 94.336 193.401 77.713 175.431 68.655C150.344 56.009 127.317 53.06 104 59.509C90.153 63.338 91.086 63.573 88.368 55.576C87.073 51.768 86.217 48.449 86.466 48.201C86.714 47.952 91.164 46.487 96.353 44.944C141.373 31.559 187.147 46.991 230 89.999C241.821 101.863 251.457 113.586 254.008 119.208C256.497 124.693 256.489 131.326 253.986 136.842C250.601 144.301 233.26 164.024 218.421 177.294L215.341 180.047L210.122 174.046M144.193 164.333L150.147 161.661L122.339 133.839L94.531 106.018L92.337 110.259C84.718 124.985 88.031 144.342 100.201 156.196C105.707 161.559 112.965 165.662 119.355 167.024C126.391 168.523 137.549 167.314 144.193 164.333M171.708 143.687C167.139 142.88 166.04 142.339 166.505 141.127C166.829 140.282 167.354 136.196 167.673 132.046C169.059 113.956 160.229 99.112 143.43 91.295C138.436 88.971 136.158 88.532 129 88.517C124.325 88.508 118.894 88.843 116.931 89.261L113.362 90.023L112.17 82.356C111.515 78.139 111.205 74.461 111.483 74.184C111.761 73.906 116.153 73.231 121.244 72.685C156.615 68.886 186.293 97.013 183.619 131.8C183.26 136.467 182.7 141.347 182.375 142.643C181.719 145.257 180.999 145.328 171.708 143.687" />
    <glyph glyph-name="view-1"
      unicode="&#xEA18;"
      horiz-adv-x="256" d="M110.785 214.518C77.262 209.035 43.685 187.781 13.745 153.092C0.39 137.619 -2.578 129.218 1.878 119.5C5.946 110.628 26.722 87.869 42.433 75.075C72.04 50.964 97.647 40.668 128 40.668C143.382 40.668 149.789 41.694 164.5 46.514C191.161 55.249 222.382 78.569 245.78 107.225C253.245 116.367 255.956 121.903 255.956 128C255.956 134.327 253.065 139.991 244.866 149.727C215.208 184.946 183.381 206.272 149.5 213.627C139.448 215.809 121.241 216.228 110.785 214.518M140.678 198.93C170.818 194.809 205.217 172.514 233.144 139C238.141 133.004 240 129.93 240 127.665C240 123.713 221.113 102.461 207.083 90.625C188.647 75.073 175.033 66.977 157.431 61.102C124.996 50.275 91.834 57.572 58.297 82.913C40.327 96.492 16 122.43 16 128.011C16 131.328 22.347 139.4 35.907 153.326C70.063 188.406 105.341 203.762 140.678 198.93M116.5 182.837C113.75 182.32 107.811 180.119 103.302 177.945C69.127 161.471 61.553 115.558 88.556 88.556C115.604 61.507 161.413 69.114 178.014 103.41C198.306 145.335 162.558 191.493 116.5 182.837M144.429 164.18C153.452 159.957 159.29 154.215 163.765 145.16C167.294 138.02 167.5 137.075 167.5 128C167.5 118.925 167.294 117.98 163.765 110.84C159.267 101.738 153.477 96.069 144.18 91.665C138.139 88.803 136.591 88.5 128 88.5C119.409 88.5 117.861 88.803 111.82 91.665C102.523 96.069 96.733 101.738 92.235 110.84C88.71 117.972 88.5 118.933 88.5 127.948C88.5 136.598 88.799 138.131 91.665 144.18C95.683 152.662 101.404 158.871 108.866 162.848C116.743 167.046 121.053 167.996 130.249 167.558C136.251 167.272 139.448 166.511 144.429 164.18" />
    <glyph glyph-name="a-search"
      unicode="&#xEA19;"
      horiz-adv-x="256" d="M98.104 254.454C80.282 250.587 63.28 237.305 55.201 220.936C48.186 206.725 46.445 193.481 49.584 178.208C56.273 145.66 83.771 120.03 112 120.03C150.089 120.03 183.047 165.069 174.496 205.436C167.264 239.573 132.459 261.906 98.104 254.454M121.114 239.001C139.672 235.56 155.551 219.453 159.105 200.463C162.16 184.144 155.394 163.784 142.5 150.492C136.326 144.129 130.96 140.682 123.11 138.037C108.894 133.248 93.864 137.747 81.5 150.492C71.947 160.34 65.465 174.496 64.327 188C61.684 219.338 90.001 244.77 121.114 239.001M172.773 118.445C164.033 116.327 157.19 112.375 150.261 105.446C131.418 86.603 131.482 57.333 150.407 38.407C165.22 23.595 186.583 20.03 205 29.299L211.5 32.57L226.751 17.547L242.001 2.523L247.739 8.261L253.477 13.999L238.453 29.249L223.43 44.5L226.701 51C235.929 69.335 232.398 90.788 217.739 105.446C205.41 117.775 189.263 122.443 172.773 118.445M96 103.311C65.635 101.023 44.258 96.77 24 88.986C13.187 84.831 5.438 77.644 2.138 68.712C0.146 63.321 0 61.045 0 35.462L0 8L72 8L144 8L144 16L144 24L80 24L16 24L16 42.532C16 67.636 16.509 68.659 32.067 74.818C52.349 82.847 83.586 87.981 112.25 87.996L120 88L120 96L120 104L110.25 103.825C104.888 103.729 98.475 103.498 96 103.311M197.226 100.754C217.149 91.633 221.951 65.017 206.467 49.533C194.308 37.375 173.692 37.375 161.533 49.533C153.738 57.328 150.371 69.886 153.339 80.095C158.977 99.489 179.198 109.008 197.226 100.754" />
    <glyph glyph-name="folder-search"
      unicode="&#xEA1A;"
      horiz-adv-x="256" d="M0.232 143.75L0.5 39.5L2.953 34.516C5.977 28.369 12.458 21.938 18.75 18.839L23.5 16.5L128 16.5L232.5 16.5L237.484 18.953C243.631 21.977 250.062 28.458 253.161 34.75L255.5 39.5L255.772 123.75L256.044 208L190.121 208L124.198 208L112.376 228L100.553 248L50.258 248L-0.036 248L0.232 143.75M103.525 212L115.436 192L177.737 192L240.037 192L239.769 117.073C239.504 43.168 239.472 42.108 237.438 39.385C236.304 37.866 234.134 35.696 232.615 34.562C229.868 32.511 229.311 32.5 128 32.5C26.689 32.5 26.132 32.511 23.385 34.562C21.866 35.696 19.696 37.866 18.562 39.385C16.518 42.122 16.498 42.964 16.235 137.073L15.97 232L53.792 232L91.614 232L103.525 212M108.773 166.445C100.033 164.327 93.19 160.375 86.261 153.446C67.418 134.603 67.482 105.333 86.407 86.407C101.22 71.595 122.582 68.03 141 77.299L147.5 80.57L161.751 66.547L176.002 52.524L181.739 58.261L187.476 63.998L173.453 78.249L159.43 92.5L162.701 99C171.928 117.336 168.397 138.788 153.739 153.446C141.41 165.775 125.263 170.443 108.773 166.445M133.226 148.754C144.801 143.455 151.504 132.886 151.462 120C151.432 110.582 148.759 104.152 142.195 97.705C135.479 91.108 129.28 88.545 120 88.527C113.985 88.516 111.394 89.031 106.914 91.126C92.758 97.748 85.162 113.726 89.339 128.095C94.977 147.489 115.198 157.008 133.226 148.754" />
    <glyph glyph-name="m-search"
      unicode="&#xEA1B;"
      horiz-adv-x="256" d="M44.698 235.378C20.622 228.161 0.713 222.047 0.457 221.79C0.201 221.534 0.105 174.53 0.245 117.337L0.5 13.349L43 26.141C66.375 33.177 86.286 38.949 87.248 38.967C88.209 38.985 98.757 35.095 110.688 30.321C122.619 25.548 132.535 22.061 132.724 22.571C132.913 23.082 134.298 26.41 135.802 29.967L138.536 36.435L114.018 46.215C100.533 51.594 88.878 55.996 88.119 55.998C87.091 55.999 42.349 42.902 17.75 35.399C16.093 34.893 16 39.496 16 122.372L16 209.879L24.25 212.363C28.788 213.729 44.515 218.481 59.2 222.923C73.885 227.365 86.618 231 87.495 231C88.371 231 106.731 223.898 128.294 215.218L167.5 199.435L203.5 210.209C223.3 216.135 239.613 220.987 239.75 220.992C239.887 220.996 240 194.675 240 162.5L240 104L248 104L256 104L256 173.349L256 242.699L213.25 229.869C189.738 222.813 169.6 217.049 168.5 217.061C167.4 217.074 148.944 224.152 127.486 232.792L88.472 248.5L44.698 235.378M172.773 118.445C164.033 116.327 157.19 112.375 150.261 105.446C131.418 86.603 131.482 57.333 150.407 38.407C165.22 23.595 186.583 20.03 205 29.299L211.5 32.57L226.751 17.547L242.001 2.523L247.739 8.261L253.477 13.999L238.453 29.249L223.43 44.5L226.701 51C235.929 69.335 232.398 90.788 217.739 105.446C205.41 117.775 189.263 122.443 172.773 118.445M197.226 100.754C217.149 91.633 221.951 65.017 206.467 49.533C194.308 37.375 173.692 37.375 161.533 49.533C153.738 57.328 150.371 69.886 153.339 80.095C158.977 99.489 179.198 109.008 197.226 100.754" />
    <glyph glyph-name="bin-1"
      unicode="&#xEA1C;"
      horiz-adv-x="256" d="M80 236L80 216L44 216L8 216L8 208L8 200L128 200L248 200L248 208L248 216L212 216L176 216L176 236L176 256L128 256L80 256L80 236M160 228L160 216L128 216L96 216L96 228L96 240L128 240L160 240L160 228M32.227 103.75L32.5 23.5L34.953 18.516C37.977 12.369 44.458 5.938 50.75 2.839L55.5 0.5L128 0.5L200.5 0.5L205.484 2.953C211.631 5.977 218.062 12.458 221.161 18.75L223.5 23.5L223.773 103.75L224.046 184L216.041 184L208.035 184L207.768 105.073C207.503 27.127 207.474 26.112 205.438 23.385C204.304 21.866 202.134 19.696 200.615 18.562C197.887 16.525 196.992 16.5 128 16.5C59.008 16.5 58.113 16.525 55.385 18.562C53.866 19.696 51.696 21.866 50.562 23.385C48.526 26.112 48.497 27.127 48.232 105.073L47.965 184L39.959 184L31.954 184L32.227 103.75M80 96L80 48L88 48L96 48L96 96L96 144L88 144L80 144L80 96M120 96L120 48L128 48L136 48L136 96L136 144L128 144L120 144L120 96M160 96L160 48L168 48L176 48L176 96L176 144L168 144L160 144L160 96" />
    <glyph glyph-name="e-remove-1"
      unicode="&#xEA1D;"
      horiz-adv-x="256" d="M33.985 221.485L28.539 215.97L72.515 171.985L116.491 128L72.503 84.003L28.515 40.007L34.261 34.261L40.007 28.515L84.003 72.503L128 116.491L171.997 72.503L215.993 28.515L221.739 34.261L227.485 40.007L183.497 84.003L139.509 128L183.497 171.997L227.485 215.993L221.739 221.739L215.993 227.485L171.997 183.497L128 139.509L84.246 183.254C60.181 207.314 40.253 227 39.962 227C39.67 227 36.981 224.518 33.985 221.485" />
    <glyph glyph-name="currency-exchange-2"
      unicode="&#xEA1E;"
      horiz-adv-x="256" d="M128 248.138L128 240.276L135.75 239.605C153.003 238.111 163.113 235.396 177.149 228.491C187.777 223.261 193.207 219.569 203.145 210.812C216.703 198.865 229.059 179.837 234.844 162C239.841 146.592 241.261 125.788 238.428 109.5C234.537 87.13 224.901 67.889 208.992 50.724C202.654 43.886 193.337 36.172 192.599 37.154C192.456 37.344 193.459 46.655 194.827 57.843C196.792 73.904 197.052 78.35 196.063 78.961C194.523 79.913 182.865 81.198 182.161 80.494C181.538 79.871 172.989 12.678 173.471 12.195C173.823 11.844 248.285 20.995 248.768 21.45C249.091 21.754 247.079 36.254 246.655 36.678C246.491 36.843 239.414 36.083 230.928 34.99C222.443 33.897 215.162 33.002 214.75 33.001C214.337 33.001 216.624 35.624 219.831 38.831C235.431 54.431 248.168 78.458 253.582 102.5C255.969 113.101 256.484 134.503 254.643 146.573C247.219 195.226 213.265 235.082 166.584 249.942C156.232 253.237 140.877 255.984 132.75 255.994L128 256L128 248.138M42.5 239.297C23.25 236.835 7.38 234.702 7.232 234.559C6.91 234.245 8.92 219.747 9.345 219.322C9.509 219.157 16.586 219.917 25.072 221.01C43.54 223.389 42.974 223.371 40.316 221.509C37.839 219.774 27.14 206.96 21.523 199C16.542 191.942 8.851 175.749 5.613 165.5C-8.193 121.799 4.188 70.934 36.497 38.625C51.789 23.332 69.617 12.36 89.416 6.058C99.768 2.763 115.123 0.016 123.25 0.006L128 0L128 7.783L128 15.566L116.498 16.787C88.97 19.711 62.676 33.01 45.188 52.855C36.431 62.793 32.739 68.223 27.509 78.851C22.057 89.933 19.424 98.149 17.528 110C11.925 145.016 22.786 179.872 47.359 205.741C53.249 211.942 61.699 219 63.232 219C63.437 219 62.5 209.754 61.149 198.453C59.696 186.293 59.062 177.563 59.597 177.065C60.094 176.602 63.52 175.915 67.212 175.536C73.675 174.874 73.943 174.935 74.445 177.174C74.731 178.454 76.552 192.325 78.49 208C80.429 223.675 82.276 238.187 82.595 240.25C83.316 244.907 87.045 244.996 42.5 239.297M120 195.5C120 183.898 119.864 183 118.105 183C113.9 183 103.033 178.806 98.735 175.524C95.771 173.261 93.209 170.082 91.449 166.486C89.084 161.652 88.798 160.074 89.218 154.204C89.813 145.885 92.534 139.523 97.614 134.575C101.573 130.719 109.499 126.247 116.25 124.06L120 122.845L120 105.922L120 89L116.75 89.007C112.846 89.015 99.766 92.104 91.586 94.948C88.333 96.08 85.585 96.892 85.479 96.753C84.954 96.066 81 83.461 81 82.475C81 80.294 108.47 73 116.684 73L120 73L120 60.5L120 48L128 48L136 48L136 60.455L136 72.909L139.75 73.597C154.627 76.323 165.498 87.296 166.712 100.81C167.364 108.074 165.797 113.8 161.681 119.197C157.567 124.59 153.838 127.1 143.904 131.162L136 134.393L136 150.697C136 166.942 136.008 167 138.25 166.983C143.257 166.944 154.101 163.978 159.856 161.073L165.968 157.987L169.567 165.133C172.409 170.776 172.885 172.458 171.833 173.129C165.592 177.105 145.712 183 138.542 183L136 183L136 195.5L136 208L128 208L120 208L120 195.5M120 153.433L120 139.865L117.763 140.575C113.792 141.836 107.908 146.277 106.435 149.127C102.977 155.812 105.636 162.2 113.255 165.511C120.029 168.456 120 168.508 120 153.433M141.167 115.11C148.945 111.716 151.728 107.692 150.569 101.515C149.504 95.839 145.466 91.854 138.861 89.96L136 89.14L136 103.07C136 110.731 136.188 117 136.417 117C136.646 117 138.784 116.149 141.167 115.11" />
    <glyph glyph-name="tags-stack"
      unicode="&#xEA1F;"
      horiz-adv-x="256" d="M24 248L24 240L70.247 240L116.494 240L178.243 178.257L239.992 116.514L245.739 122.261L251.486 128.008L187.496 192.004L123.506 256L73.753 256L24 256L24 248M8 174.223L8 124.447L68.75 63.847C126.093 6.645 129.802 3.148 134.881 1.499C141.245 -0.567 147.999 -0.076 153.682 2.867C158.404 5.311 227.055 74.152 229.606 79C232.129 83.796 232.134 95.188 229.615 100C228.607 101.925 200.728 130.612 167.661 163.75L107.538 224L57.769 224L8 224L8 174.223M158.247 150.253C212.556 95.95 216 92.298 216.007 89.003C216.014 85.719 213.811 83.329 180.757 50.768C150.336 20.8 145.089 16.034 142.503 16.018C139.867 16.002 132.556 22.949 81.753 73.747L24 131.494L24 169.747L24 208L62.247 208L100.494 208L158.247 150.253M62.3 190.199C51.437 186.318 44.515 179.018 41.339 168.095C38.371 157.886 41.738 145.328 49.533 137.533C61.692 125.375 82.308 125.375 94.467 137.533C103.585 146.651 106.27 161.551 100.874 173.086C94.024 187.729 76.788 195.376 62.3 190.199M81.317 172.707C91.059 165.277 89.513 150.793 78.415 145.527C67.748 140.465 54.927 149.788 56.262 161.635C57.624 173.716 71.788 179.976 81.317 172.707" />
    <glyph glyph-name="shopping-bag-1"
      unicode="&#xEA20;"
      horiz-adv-x="256" d="M117.402 254.514C108.529 252.584 101.383 248.568 94.407 241.593C83.319 230.504 80.046 220.533 80.017 197.75L80 184L56.5 184C43.575 184 33 183.87 33 183.712C33 183.554 28.275 150.383 22.5 110C16.725 69.617 12 34.213 12 31.325C12 19.921 19.268 8.471 29.786 3.306L35.5 0.5L125.923 0.229C227.694 -0.076 222.747 -0.406 232.242 7.335C239.094 12.92 243.275 20.886 243.797 29.349C244.057 33.556 240.977 57.933 234.049 106.5C228.479 145.55 223.665 178.963 223.35 180.75L222.777 184L199.389 184L176 184L175.983 197.75C175.954 220.538 172.823 230.108 161.724 241.328C154.043 249.093 148.007 252.504 138.457 254.477C129.705 256.2850000000001 125.574 256.292 117.402 254.514M141.25 237.145C147.53 234.073 154.018 227.642 157.047 221.484C159.292 216.923 159.527 215.122 159.817 200.25L160.135 184L128.067 184L96 184L96 198.874C96 214.952 96.765 218.665 101.57 225.926C104.678 230.623 112.017 236.357 117.665 238.502C123.485 240.713 135.353 240.03 141.25 237.145M80 148L80 128L88 128L96 128L96 148L96 168L128 168L160 168L160 148L160 128L168 128L176 128L176 148L176 168L192.455 168L208.909 168L209.483 164.75C211.645 152.516 228 34.767 228 31.442C228 26.817 225.239 21.972 220.677 18.592C217.861 16.506 217.603 16.5 128 16.5C38.397 16.5 38.139 16.506 35.323 18.592C30.761 21.972 28 26.817 28 31.442C28 34.767 44.355 152.516 46.517 164.75L47.091 168L63.545 168L80 168L80 148" />
    <glyph glyph-name="store"
      unicode="&#xEA21;"
      horiz-adv-x="256" d="M32 233.738L32 211.477L16 195.5L0 179.523L0 161.762L0 144L12 144L24 144L24 72L24 0L88 0L152 0L152 36L152 72L168 72L184 72L184 36L184 0L208 0L232 0L232 72L232 144L244 144L256 144L256 161.762L256 179.523L240 195.5L224 211.477L224 233.738L224 256L128 256L32 256L32 233.738M208 228L208 216L128 216L48 216L48 228L48 240L128 240L208 240L208 228M226.237 186.263L240 172.527L240 166.263L240 160L128 160L16 160L16 166.237L16 172.474L29.737 186.237L43.473 200L127.974 200L212.474 200L226.237 186.263M216 80L216 16L208 16L200 16L200 52L200 88L168 88L136 88L136 52L136 16L88 16L40 16L40 80L40 144L128 144L216 144L216 80M56 88L56 56L88 56L120 56L120 88L120 120L88 120L56 120L56 88M104 88L104 72L88 72L72 72L72 88L72 104L88 104L104 104L104 88" />
    <glyph glyph-name="shopping-tag"
      unicode="&#xEA22;"
      horiz-adv-x="256" d="M8 190.215L8 132.431L67.75 72.871C114.653 26.117 128.575 12.794 132.5 10.906C139.471 7.552 152.401 7.463 159 10.724C165.293 13.833 241.494 89.992 245 96.676C248.551 103.447 248.599 116.21 245.1 123.5C243.213 127.432 229.98 141.258 183.127 188.25L123.554 248L65.777 248L8 248L8 190.215M173.694 174.75C235.713 112.645 233.231 115.584 231.546 106.25C230.954 102.97 226.019 97.65 192.184 63.816C158.35 29.981 153.03 25.046 149.75 24.454C140.416 22.769 143.355 20.287 81.25 82.306L24 139.476L24 185.738L24 232L70.262 232L116.524 232L173.694 174.75M70.3 206.199C59.437 202.318 52.515 195.018 49.339 184.095C46.371 173.886 49.738 161.328 57.533 153.533C69.692 141.375 90.308 141.375 102.467 153.533C111.585 162.651 114.27 177.551 108.874 189.086C102.024 203.729 84.788 211.376 70.3 206.199M89.317 188.707C99.059 181.277 97.513 166.793 86.415 161.527C75.748 156.465 62.927 165.788 64.262 177.635C65.624 189.716 79.788 195.976 89.317 188.707M129.984 157.484L124.537 151.968L150.264 126.241L175.992 100.513L181.737 106.258L187.482 112.004L161.998 137.502C147.982 151.526 136.271 163 135.973 163C135.675 163 132.98 160.518 129.984 157.484M97.984 125.484L92.537 119.968L118.264 94.241L143.992 68.513L149.737 74.258L155.482 80.004L129.998 105.502C115.982 119.526 104.271 131 103.973 131C103.675 131 100.98 128.518 97.984 125.484" />
    <glyph glyph-name="shopping-cart"
      unicode="&#xEA23;"
      horiz-adv-x="256" d="M0 248L0 240L16.5 240C28.351 240 33 239.673 33 238.84C33 236.458 45.078 117.186 46.091 109.568C46.671 105.205 48.044 99.875 49.142 97.723C51.908 92.301 58.551 85.922 64.5 82.976L69.5 80.5L137 80.5C203.991 80.5 204.535 80.516 209.103 82.651C218.3 86.95 224.591 94.324 227.428 104.131C228.283 107.084 233.484 130.65 238.987 156.5C244.49 182.35 249.228 204.513 249.515 205.75L250.038 208L151.113 208L52.188 208L51.592 212.75C51.265 215.362 50.313 224.7 49.478 233.5C48.643 242.3 47.723 250.962 47.434 252.75L46.909 256L23.455 256L0 256L0 248M230 191.69C230 188.509 211.4 106.476 210.118 104C209.121 102.075 206.774 99.6 204.902 98.5C201.614 96.567 199.415 96.49 139.5 96.203C105.4 96.04 76.051 96.171 74.279 96.493C70.477 97.185 65.511 101.112 63.487 105.025C62.285 107.349 54 181.443 54 189.865L54 192L142 192C190.4 192 230 191.861 230 191.69M54.3 62.199C43.437 58.318 36.515 51.018 33.339 40.095C30.371 29.886 33.738 17.328 41.533 9.533C53.692 -2.625 74.308 -2.625 86.467 9.533C98.625 21.692 98.625 42.308 86.467 54.467C78.333 62.6 64.637 65.893 54.3 62.199M206.3 62.199C195.437 58.318 188.515 51.018 185.339 40.095C182.371 29.886 185.738 17.328 193.533 9.533C205.692 -2.625 226.308 -2.625 238.467 9.533C250.625 21.692 250.625 42.308 238.467 54.467C230.333 62.6 216.637 65.893 206.3 62.199M73.317 44.707C83.059 37.277 81.513 22.793 70.415 17.527C59.748 12.465 46.927 21.788 48.262 33.635C49.624 45.716 63.788 51.976 73.317 44.707M225.317 44.707C235.059 37.277 233.513 22.793 222.415 17.527C211.748 12.465 198.927 21.788 200.262 33.635C201.624 45.716 215.788 51.976 225.317 44.707" />
    <glyph glyph-name="stock-2"
      unicode="&#xEA24;"
      horiz-adv-x="256" d="M0 248L0 240L16 240L32 240L32 159.519L32 79.038L29.25 78.376C16.596 75.329 5.072 63.398 1.359 49.5C-6.2 21.199 21.199 -6.2 49.5 1.359C63.398 5.072 75.329 16.596 78.376 29.25L79.038 32L167.519 32L256 32L256 40L256 48L167.519 48L79.038 48L78.376 50.75C75.503 62.683 62.683 75.503 50.75 78.376L48 79.038L48 167.519L48 256L24 256L0 256L0 248M72 140L72 72L152 72L232 72L232 140L232 208L152 208L72 208L72 140M216 140L216 88L152 88L88 88L88 140L88 192L152 192L216 192L216 140M49 61.919C55.043 59.184 58.776 55.509 61.617 49.5C65.681 40.902 63.964 30.864 57.191 23.624C53.388 19.559 45.387 16.02 40 16.02C34.613 16.02 26.612 19.559 22.809 23.624C11.426 35.791 15.189 54.378 30.5 61.617C36.683 64.54 42.983 64.643 49 61.919" />
    <glyph glyph-name="customer-support"
      unicode="&#xEA25;"
      horiz-adv-x="256" d="M128 184C128 148.8 128.236 120 128.526 120C128.815 120 140.278 129 154 140L178.949 160L217.474 160L256 160L256 204L256 248L192 248L128 248L128 184M240 204L240 176L206.608 176L173.217 176L159.858 165.343C152.511 159.482 145.938 154.252 145.25 153.721C144.255 152.952 144 160.831 144 192.378L144 232L192 232L240 232L240 204M62 182.569C40.792 176.668 27.883 155.002 33.359 134.5C37.273 119.848 47.848 109.273 62.5 105.359C90.801 97.8 118.2 125.199 110.641 153.5C104.845 175.196 82.816 188.361 62 182.569M81 165.919C87.043 163.184 90.776 159.509 93.617 153.5C97.681 144.902 95.964 134.864 89.191 127.624C85.388 123.559 77.387 120.02 72 120.02C66.613 120.02 58.612 123.559 54.809 127.624C43.426 139.791 47.189 158.378 62.5 165.617C68.683 168.54 74.983 168.643 81 165.919M55.5 87.372C35.305 84.342 19.159 79.529 12.725 74.62C10.432 72.872 7.325 69.655 5.819 67.471C0.495 59.75 0 56.674 0 31.322L0 8L72 8L144 8L144 31.374C144 57.006 143.609 59.348 137.953 67.568C136.233 70.068 133.035 73.411 130.846 74.997C126.181 78.376 112.044 83.22 100 85.566C91.792 87.164 62.138 88.368 55.5 87.372M100.5 69.141C118.083 65.278 124.884 61.377 127.02 53.931C127.559 52.051 128 44.548 128 37.257L128 24L71.91 24L15.821 24L16.16 39.429C16.535 56.433 17.063 58.034 23.817 62.634C27.418 65.086 39.866 68.67 51.5 70.605C62.841 72.492 88.78 71.717 100.5 69.141" />
    <glyph glyph-name="credit-card"
      unicode="&#xEA26;"
      horiz-adv-x="256" d="M16 222.693C11.092 221.146 2.721 212.478 1.216 207.384C-0.53 201.475 -0.53 54.525 1.216 48.616C2.839 43.123 11.123 34.839 16.616 33.216C22.56 31.46 233.44 31.46 239.384 33.216C244.877 34.839 253.161 43.123 254.784 48.616C256.53 54.525 256.53 201.475 254.784 207.384C253.161 212.877 244.877 221.161 239.384 222.784C233.785 224.438 21.262 224.351 16 222.693M237.545 205.545C239.809 203.282 240 202.347 240 193.545L240 184L128 184L16 184L16 193.545C16 202.347 16.191 203.282 18.455 205.545L20.909 208L128 208L235.091 208L237.545 205.545M240 156L240 144L128 144L16 144L16 156L16 168L128 168L240 168L240 156M240 90.455L240 52.909L237.545 50.455L235.091 48L128 48L20.909 48L18.455 50.455L16 52.909L16 90.455L16 128L128 128L240 128L240 90.455M32 88L32 80L68 80L104 80L104 88L104 96L68 96L32 96L32 88M192 88L192 80L208 80L224 80L224 88L224 96L208 96L192 96L192 88" />
    <glyph glyph-name="globe-1"
      unicode="&#xEA28;"
      horiz-adv-x="256" d="M111.635 254.935C63.315 248.238 22.143 214.556 7.104 169.42C1.966 154 0.556 145.08 0.556 128C0.556 105.587 4.917 87.291 14.609 69.041C33.143 34.146 64.68 10.615 104 2.344C115.734 -0.125 140.266 -0.125 152 2.344C191.32 10.615 222.857 34.146 241.391 69.041C251.083 87.291 255.444 105.587 255.444 128C255.444 150.413 251.083 168.709 241.391 186.959C222.946 221.687 191.061 245.557 152.5 253.506C142.876 255.49 121.126 256.251 111.635 254.935M120 219.5L120 200L100.983 200L81.966 200L84.618 205.25C92.171 220.207 104.237 232.72 115.5 237.278C117.7 238.169 119.612 238.92 119.75 238.948C119.888 238.977 120 230.225 120 219.5M148.5 232.947C156.407 227.59 165.908 216.09 171.382 205.25L174.034 200L155.017 200L136 200L136 219.492L136 238.984L140.25 237.321C142.588 236.406 146.3 234.438 148.5 232.947M75.547 221.408C73.066 217.631 69.566 211.269 67.768 207.271L64.5 200.002L53.682 200.001L42.864 200L44.926 202.896C46.942 205.727 54.505 212.518 62.5 218.675C66.764 221.959 79.215 229.119 79.743 228.591C79.916 228.417 78.029 225.185 75.547 221.408M193.5 218.681C201.544 212.474 209.062 205.721 211.074 202.896L213.136 200L202.318 200.001L191.5 200.002L188.232 207.271C186.434 211.269 182.947 217.611 180.482 221.363C178.017 225.116 176 228.41 176 228.685C176 229.531 189.268 221.946 193.5 218.681M58.596 182.25C55.759 173.047 52.049 149.914 52.018 141.25L52 136L33.981 136L15.962 136L16.429 138.25C16.686 139.487 17.39 143.579 17.993 147.341C19.466 156.527 23.491 169.018 27.631 177.25L31.025 184L45.08 184C58.004 184 59.091 183.859 58.596 182.25M120 160L120 136L94 136L68 136L68.018 140.75C68.055 150.181 73.305 179.448 75.637 183.221C75.901 183.65 85.991 184 98.059 184L120 184L120 160M182.737 175C185.225 165.548 188 147.338 188 140.466L188 136L162 136L136 136L136 160.019L136 184.038L158.25 183.769L180.5 183.5L182.737 175M228.369 177.25C232.509 169.018 236.534 156.527 238.007 147.341C238.61 143.579 239.314 139.487 239.571 138.25L240.038 136L222.019 136L204 136L203.982 141.25C203.951 149.914 200.241 173.047 197.404 182.25C196.909 183.859 197.996 184 210.92 184L224.975 184L228.369 177.25M52.018 114.75C52.049 106.086 55.759 82.953 58.596 73.75C59.091 72.141 58.004 72 45.08 72L31.025 72L27.631 78.75C23.491 86.982 19.466 99.473 17.993 108.659C17.39 112.421 16.686 116.512 16.429 117.75L15.962 120L33.981 120L52 120L52.018 114.75M120 95.981L120 71.962L97.75 72.231L75.5 72.5L73.263 81C70.775 90.452 68 108.662 68 115.534L68 120L94 120L120 120L120 95.981M188 115.534C188 108.662 185.225 90.452 182.737 81L180.5 72.5L158.25 72.231L136 71.962L136 95.981L136 120L162 120L188 120L188 115.534M239.571 117.75C239.314 116.512 238.61 112.421 238.007 108.659C236.534 99.473 232.509 86.982 228.369 78.75L224.975 72L210.92 72C197.996 72 196.909 72.141 197.404 73.75C200.241 82.953 203.951 106.086 203.982 114.75L204 120L222.019 120L240.038 120L239.571 117.75M67.768 48.729C69.566 44.731 73.053 38.389 75.518 34.637C77.983 30.884 80 27.59 80 27.315C80 26.469 66.732 34.054 62.5 37.319C54.456 43.526 46.938 50.279 44.926 53.104L42.864 56L53.682 55.999L64.5 55.998L67.768 48.729M120 36.508L120 17.016L115.75 18.679C104.375 23.131 92.267 35.604 84.618 50.75L81.966 56L100.983 56L120 56L120 36.508M171.382 50.75C163.733 35.604 151.625 23.131 140.25 18.679L136 17.016L136 36.508L136 56L155.017 56L174.034 56L171.382 50.75M211.074 53.104C209.062 50.279 201.544 43.526 193.5 37.319C189.268 34.054 176 26.469 176 27.315C176 27.59 178.017 30.884 180.482 34.637C182.947 38.389 186.434 44.731 188.232 48.729L191.5 55.998L202.318 55.999L213.136 56L211.074 53.104" />
    <glyph glyph-name="world"
      unicode="&#xEA29;"
      horiz-adv-x="256" d="M111.635 254.935C63.315 248.238 22.143 214.556 7.104 169.42C1.966 154 0.556 145.08 0.556 128C0.556 105.587 4.917 87.291 14.609 69.041C33.143 34.146 64.68 10.615 104 2.344C115.734 -0.125 140.266 -0.125 152 2.344C191.32 10.615 222.857 34.146 241.391 69.041C251.083 87.291 255.444 105.587 255.444 128C255.444 150.413 251.083 168.709 241.391 186.959C222.946 221.687 191.061 245.557 152.5 253.506C142.876 255.49 121.126 256.251 111.635 254.935M144.672 238.504C167.106 234.866 184.446 226.745 202.29 211.519C212.573 202.745 213.024 201.768 208.28 198.544C204.811 196.187 203.688 195.998 193.018 195.976C183.086 195.956 180.674 195.612 175.5 193.481C172.2 192.121 168.906 191.007 168.18 191.005C167.454 191.002 164.92 192.335 162.549 193.966C158.598 196.684 158.06 197.591 156.119 204.785C154.953 209.103 154 213.061 154 213.58C154 215.382 138.541 231.311 132.588 235.643L126.6 240L131.05 239.996C133.497 239.994 139.627 239.323 144.672 238.504M109 235.58C109 233.721 110.68 231.956 116.25 227.962C120.237 225.102 126.945 219.382 131.155 215.249L138.811 207.735L141.576 197.302L144.341 186.869L154.988 179.641L165.634 172.412L174.995 176.206C184.079 179.888 184.722 180 196.703 180L209.049 180L215.622 184.151C223.112 188.882 222.094 189.391 227.924 178C238.18 157.962 242.081 133.379 238.504 111.328C228.546 49.931 171.384 7.755 111.328 17.496C93.945 20.315 74.869 27.974 63.376 36.75L58.683 40.334L63.837 42.608C68.672 44.742 69.577 45.776 78.495 59.364C83.723 67.328 88 74.261 88 74.77C88 75.278 82.21 80.151 75.134 85.597C62.438 95.369 62.196 95.632 56.721 105.5C53.67 111 49.981 117.903 48.524 120.84C45.488 126.961 44.947 125.551 55 137.726L61.5 145.598L78 148.586L94.5 151.575L95.125 157.537C95.469 160.817 96.046 168.72 96.407 175.101L97.064 186.702L87.405 198.601C82.093 205.145 75.476 213.126 72.701 216.335C68.621 221.052 67.928 222.358 69.078 223.154C73.384 226.136 89.641 233.277 97 235.419C107.939 238.604 109 238.618 109 235.58M59.572 207.25C61.812 204.637 67.325 197.911 71.822 192.303L80 182.105L80 173.651L80 165.196L67.75 162.97C61.013 161.746 54.573 160.172 53.44 159.474C52.307 158.775 45.898 151.692 39.197 143.734L27.013 129.265L33.404 115.882C36.918 108.522 41.999 98.58 44.694 93.788C49.066 86.014 50.532 84.369 58.297 78.512C63.084 74.901 67 71.72 67 71.442C67 71.164 64.986 67.935 62.524 64.265C58.664 58.511 57.206 57.21 51.939 54.819L45.831 52.047L43.166 55.198C29.397 71.473 20.972 89.894 17.496 111.328C11.99 145.277 23.616 181.025 48.529 206.75C51.325 209.638 54.038 212 54.557 212C55.075 211.999 57.333 209.862 59.572 207.25M152 153.917C144.025 152.348 136.53 150.828 135.345 150.538C133.625 150.116 131.961 146.863 127.083 134.39L120.976 118.769L124.324 107.596L127.673 96.423L122.374 84.259L117.074 72.095L124.605 56.313C128.747 47.633 132.269 40.398 132.431 40.235C132.594 40.073 139.145 41.3 146.989 42.963L161.252 45.986L170.118 52.588C174.994 56.218 182.448 63.084 186.684 67.844C190.919 72.605 198.074 80.325 202.584 85L210.784 93.5L212.348 106.913L213.912 120.327L204.093 132.913L194.273 145.5L181.033 151C173.751 154.025 167.502 156.56 167.146 156.634C166.791 156.708 159.975 155.485 152 153.917M175.054 135.926C184.26 131.997 184.836 131.559 190.876 123.923L197.144 115.997L196.16 107.858L195.176 99.718L187.26 91.609C182.906 87.149 176.901 80.731 173.914 77.347C169 71.779 159.338 63.805 154.415 61.255C153.362 60.71 150.7 59.955 148.5 59.578C146.3 59.202 143.796 58.688 142.935 58.438C141.786 58.104 140.494 59.973 138.084 65.457L134.799 72.932L139.781 83.905L144.762 94.877L141.375 106.189L137.988 117.5L141.125 126.272C142.849 131.096 144.765 135.371 145.38 135.772C146.293 136.366 160.773 139.488 164.5 139.894C165.05 139.954 169.799 138.168 175.054 135.926" />
    <glyph glyph-name="tag-cut-1"
      unicode="&#xEA2A;"
      horiz-adv-x="256" d="M18.24 237.74L0 219.48L0 183.988L0 148.495L72.001 76.499L144.001 4.504L197.749 58.251L251.496 111.999L179.501 183.999L107.505 256L71.992 256L36.48 256L18.24 237.74M164.501 175.999L228.496 111.999L186.249 69.751L144.001 27.504L80.001 91.499L16 155.494L16 183.984L16 212.474L29.737 226.237L43.473 240L71.99 240L100.506 240L164.501 175.999M64 206.693C59.092 205.146 50.721 196.478 49.216 191.384C46.446 182.008 48.399 174.533 55.466 167.466C65.583 157.349 78.417 157.349 88.534 167.466C98.651 177.583 98.651 190.417 88.534 200.534C81.497 207.57 73.307 209.626 64 206.693M77.545 189.545C79.093 187.998 80 185.948 80 184C80 182.052 79.093 180.002 77.545 178.455C75.998 176.907 73.948 176 72 176C70.052 176 68.002 176.907 66.455 178.455C64.907 180.002 64 182.052 64 184C64 185.948 64.907 187.998 66.455 189.545C68.002 191.093 70.052 192 72 192C73.948 192 75.998 191.093 77.545 189.545" />
    <glyph glyph-name="map-pin-1"
      unicode="&#xEA2B;"
      horiz-adv-x="256" d="M114 254.449C110.425 253.683 103.329 250.996 98.232 248.476C70.985 235.009 57.769 203.974 67.416 176.113C73.886 157.428 90.233 133.371 114.899 106.232C122.9 97.43 126.269 95.501 130.851 97.098C135.695 98.786 159.887 126.717 171.477 144C193.53 176.888 197.056 197.236 184.957 221.778C172.733 246.57 142.409 260.533 114 254.449M144.172 237.139C163.362 230.449 176 213.168 176 193.616C176 178.673 158.413 149.209 132.06 120L128 115.5L123.94 120C97.651 149.137 80 178.631 80 193.419C80 214.532 94.315 232.448 116 238.475C123.116 240.453 136.483 239.819 144.172 237.139M231 211.31C217.525 207.193 206.411 203.737 206.301 203.63C205.634 202.978 210.516 189.003 211.407 189.014C212.008 189.022 218.563 190.822 225.974 193.014C233.385 195.206 239.573 197 239.724 197C239.876 197 239.994 164.713 239.987 125.25L239.975 53.5L203.946 39.136L167.917 24.772L128.644 40.386C107.045 48.974 88.715 56 87.912 56C87.109 56 70.723 49.7 51.5 42C32.277 34.3 16.425 28 16.274 28C16.123 28 16 60.107 16 99.349L16 170.697L32.25 177.005C41.188 180.475 48.891 183.657 49.37 184.077C49.848 184.496 48.983 188.044 47.446 191.96C45.306 197.415 44.284 198.946 43.076 198.506C42.209 198.19 32.167 194.234 20.761 189.715L0.021 181.5L0.011 92.877L0 4.253L44.026 21.747L88.052 39.241L127.34 23.62C148.948 15.029 167.272 8 168.059 8C168.846 8 188.949 15.762 212.732 25.25L255.974 42.5L255.987 130.75C255.994 179.287 255.887 218.954 255.75 218.897C255.613 218.841 244.475 215.426 231 211.31M120 214.693C115.092 213.146 106.721 204.478 105.216 199.384C102.446 190.008 104.399 182.533 111.466 175.466C121.583 165.349 134.417 165.349 144.534 175.466C154.651 185.583 154.651 198.417 144.534 208.534C137.497 215.57 129.307 217.626 120 214.693M133.545 197.545C138.506 192.585 134.991 184 128 184C126.052 184 124.002 184.907 122.455 186.455C117.494 191.415 121.009 200 128 200C129.948 200 131.998 199.093 133.545 197.545" />
    <glyph glyph-name="user-1"
      unicode="&#xEA2C;"
      horiz-adv-x="256" d="M114.104 254.454C96.282 250.587 79.28 237.305 71.201 220.936C65.541 209.469 64.035 201.707 64.035 184C64.035 166.293 65.541 158.531 71.201 147.064C83.794 121.55 113.166 107.515 141.436 113.504C165.251 118.549 185.451 138.749 190.496 162.564C192.449 171.782 192.449 196.218 190.496 205.436C183.264 239.573 148.459 261.906 114.104 254.454M137.114 239.001C155.399 235.611 171.49 219.508 174.979 201.109C176.285 194.222 176.298 173.883 175.001 166.886C171.447 147.717 154.745 131.785 135 128.728C110.301 124.905 85.539 142.403 80.999 166.886C79.711 173.831 79.711 194.169 80.999 201.114C82.624 209.877 88.143 219.878 94.923 226.346C106.493 237.381 121.529 241.891 137.114 239.001M97 94.456C65.785 90.946 36.18 83.409 25.938 76.364C18.745 71.416 16.466 68.704 12.187 60L8.5 52.5L8.176 26.25L7.853 0L128 0L248.147 0L247.824 26.25L247.5 52.5L244.106 59.741C240.411 67.624 233.312 75.27 226.427 78.782C219.33 82.401 195.184 89.062 180 91.588C153.577 95.985 120.7 97.121 97 94.456M157.778 78.464C185.312 75.592 214.156 68.273 222.697 61.992C225.08 60.239 227.844 56.923 229.177 54.218C231.277 49.953 231.53 47.891 231.816 32.75L232.132 16L128.066 16L24 16L24 31.374C24 57.139 27.216 61.922 49.233 68.898C79.562 78.507 121.74 82.224 157.778 78.464" />
    <glyph glyph-name="users-wm"
      unicode="&#xEA2D;"
      horiz-adv-x="256" d="M145.5 246.205C142.2 245.221 136.254 242.661 132.286 240.517L125.072 236.618L128.195 231.059C133.063 222.393 132.378 222.661 139.919 226.459C149.353 231.21 156.959 232.634 165.418 231.232C181.501 228.567 193.575 217.597 198.582 201.099C200.311 195.403 200.509 167.499 198.876 159.799C196.385 148.059 189.465 138.954 178.434 132.899C171.71 129.209 171.118 128.631 171.55 126.181C171.81 124.706 172.87 117.773 173.906 110.773C175.948 96.97 177.668 92.815 182.755 89.386C184.656 88.105 195.822 84.789 210.978 81.005C232.564 75.617 236.33 74.396 238.028 72.238C239.832 69.943 240 68.128 240 50.865L240 32L216 32L192 32L192 24L192 16L224.043 16L256.085 16L255.793 45.331L255.5 74.662L252.474 79.555C247.603 87.429 243.473 89.31 215.782 96.272L191.28 102.432L190.133 109.966C188.584 120.148 188.609 120.338 191.762 122.201C196.231 124.84 204.221 133.518 208.14 139.99C210.143 143.296 212.769 149.663 213.977 154.14C215.975 161.543 216.139 164.102 215.792 182.39C215.455 200.126 215.143 203.254 213.148 208.887C207.066 226.063 192.539 240.145 175.297 245.579C167.576 248.013 152.617 248.326 145.5 246.205M75.217 230.618C54.781 225.409 37.658 208.036 33.467 188.257C32.679 184.541 32.019 176.775 32 171C31.942 153.455 27.706 139.51 18.381 126.171C13.022 118.505 12.998 118.603 21.85 111.808C28.783 106.486 40.357 102.265 50.654 101.303C54.047 100.987 57.254 100.451 57.782 100.114C58.393 99.722 58.391 97.095 57.776 92.863L56.812 86.227L36.656 80.49C14.845 74.282 10.923 72.686 6.809 68.342C0.792 61.988 0.046 58.46 0.022 36.25L0 16L88 16L176 16L175.978 36.25C175.954 58.46 175.208 61.988 169.191 68.342C165.077 72.686 161.155 74.282 139.344 80.49L119.188 86.227L118.224 92.863C117.609 97.095 117.607 99.722 118.218 100.114C118.746 100.451 121.953 100.987 125.346 101.303C135.6 102.261 147.213 106.487 154.171 111.793C157.566 114.382 160.751 117.175 161.249 118C161.904 119.083 160.772 121.583 157.175 127C147.752 141.192 144.047 153.498 144.017 170.701C143.995 183.677 142.767 189.515 137.928 199.653C131.255 213.634 118.229 224.888 103.297 229.572C96.476 231.712 81.673 232.264 75.217 230.618M103.429 212.18C111.359 208.469 118.089 202.392 122.378 195.069C126.893 187.361 127.08 186.485 127.961 169C128.857 151.196 131.037 141.598 136.925 129.527L140.706 121.775L137.444 120.412C130.971 117.707 124.275 116.716 111.75 116.609C99.698 116.506 99.001 116.391 99.015 114.5C99.023 113.4 100.135 105.163 101.486 96.195C104.102 78.826 105.491 75.32 110.829 72.618C112.298 71.874 122.5 68.68 133.5 65.52C144.5 62.361 154.68 59.169 156.123 58.428C159.492 56.696 159.97 54.698 159.986 42.25L160 32L88 32L16 32L16.014 42.25C16.03 54.698 16.508 56.696 19.877 58.428C21.32 59.169 31.5 62.361 42.5 65.52C53.5 68.68 63.702 71.874 65.171 72.618C70.509 75.32 71.898 78.826 74.514 96.195C75.865 105.163 76.977 113.4 76.985 114.5C76.999 116.391 76.302 116.506 64.25 116.609C51.625 116.717 45.036 117.705 38.378 120.486L34.939 121.923L38.824 129.712C45.276 142.648 47.002 150.041 47.961 168.838C48.428 178.002 49.367 187.021 50.048 188.88C54.584 201.263 64.092 210.193 77.5 214.663C84.123 216.871 95.793 215.754 103.429 212.18" />
    <glyph glyph-name="n-edit"
      unicode="&#xEA2E;"
      horiz-adv-x="256" d="M148.252 191.75L89.01 132.5L78.122 99.869L67.235 67.238L99.875 78.123L132.515 89.008L192.001 148.501L251.488 207.994L230.003 229.497C218.186 241.324 208.287 251 208.006 251C207.724 251 180.835 224.338 148.252 191.75M218.508 217.992L228.478 207.985L176 155.5L123.522 103.014L108.579 98.022C100.361 95.276 93.499 93.168 93.33 93.337C93.161 93.506 95.272 100.361 98.021 108.572L103.019 123.5L155.256 175.75C183.986 204.487 207.728 228 208.015 228C208.302 228 213.024 223.497 218.508 217.992M30.396 214.582C20.797 211.577 11.315 201.564 9.011 192C8.267 188.912 8.017 163.032 8.214 109.5L8.5 31.5L10.953 26.516C13.977 20.369 20.458 13.938 26.75 10.839L31.5 8.5L112 8.5L192.5 8.5L197.25 10.839C203.542 13.938 210.023 20.369 213.047 26.516L215.5 31.5L215.793 71.75L216.085 112L208.076 112L200.067 112L199.784 73.072C199.51 35.546 199.426 34.045 197.438 31.384C196.304 29.866 194.134 27.696 192.615 26.562C189.881 24.521 189.071 24.5 112 24.5C34.929 24.5 34.119 24.521 31.385 26.562C29.866 27.696 27.696 29.866 26.562 31.385C24.521 34.119 24.5 34.929 24.5 112C24.5 189.071 24.521 189.881 26.562 192.615C27.696 194.134 29.866 196.304 31.384 197.438C34.045 199.426 35.546 199.51 73.072 199.784L112 200.067L112 208.034L112 216L73.25 215.933C44.655 215.884 33.425 215.53 30.396 214.582" />
    <glyph glyph-name="settings-gear"
      unicode="&#xEA2F;"
      horiz-adv-x="256" d="M96.91 255.75C96.86 255.612 95.846 246.952 94.656 236.505L92.493 217.51L84.997 213.483C80.873 211.268 75.475 208.06 73 206.355L68.5 203.254L50.583 211.127C40.729 215.457 32.579 218.888 32.471 218.75C31.357 217.325 2.007 165.669 2.029 165.171C2.045 164.802 8.907 159.487 17.279 153.36L32.5 142.22L32.394 127.866L32.287 113.512L17.174 102.506C8.862 96.453 2.048 91.198 2.031 90.829C2.007 90.317 31.439 38.537 32.504 37.217C32.63 37.062 40.78 40.48 50.616 44.813L68.5 52.691L71.735 50.239C73.514 48.89 78.913 45.697 83.733 43.143L92.497 38.5L94.659 19.5C95.847 9.05 96.86 0.387 96.91 0.25C96.959 0.113 110.95 0 128 0C145.05 0 159.041 0.113 159.09 0.25C159.14 0.387 160.153 9.041 161.342 19.48L163.504 38.46L172.502 43.318C177.451 45.99 182.85 49.192 184.5 50.434L187.5 52.691L205.384 44.813C215.22 40.48 223.36 37.062 223.473 37.217C224.875 39.145 253.99 90.342 253.962 90.83C253.941 91.199 247.079 96.51 238.712 102.633L223.5 113.767L223.606 128.066L223.713 142.365L238.827 153.432C247.139 159.52 253.954 164.801 253.97 165.17C253.991 165.645 225.146 216.377 223.506 218.75C223.411 218.888 215.271 215.457 205.417 211.127L187.5 203.254L183 206.355C180.525 208.06 175.127 211.268 171.003 213.483L163.507 217.51L161.344 236.505C160.154 246.952 159.14 255.612 159.09 255.75C159.041 255.888 145.05 256 128 256C110.95 256 96.959 255.888 96.91 255.75M145.878 229.75C146.512 224.112 147.318 216.421 147.668 212.659C148.242 206.502 148.566 205.714 150.903 204.778C161.052 200.713 172.475 194.53 177.914 190.157C181.442 187.321 184.632 185 185.005 185C185.377 185 192.333 187.925 200.462 191.5C208.591 195.075 215.592 198 216.019 198C216.72 198 233 170.79 233 169.618C233 169.348 226.792 164.557 219.203 158.973L205.407 148.818L206.664 141.659C208.262 132.554 208.261 123.436 206.659 114.31L205.396 107.12L219.198 96.996C226.789 91.428 233 86.651 233 86.381C233 85.127 216.694 58 215.94 58C215.469 58 208.283 60.989 199.972 64.643L184.861 71.286L182.18 69.148C172.572 61.483 165.524 57.125 157.578 53.935L148.5 50.291L146.806 35.395C145.875 27.203 145.087 19.488 145.056 18.25C145 16.008 144.941 16 128.137 16L111.274 16L110.122 26.25C109.488 31.887 108.682 39.579 108.332 43.341C107.803 49.011 107.335 50.33 105.597 51.047C104.444 51.522 100.125 53.278 96 54.949C91.683 56.698 84.77 60.789 79.712 64.589L70.923 71.191L55.92 64.596C47.668 60.968 40.519 58 40.034 58C39.256 58 23 85.072 23 86.367C23 86.645 29.211 91.428 36.802 96.996L50.604 107.12L49.341 114.31C47.738 123.445 47.738 132.555 49.342 141.69L50.604 148.88L37.283 158.566C29.957 163.893 23.724 168.638 23.432 169.11C22.813 170.112 38.762 198 39.954 198C40.396 198 47.409 195.075 55.538 191.5C63.667 187.925 70.623 185 70.995 185C71.368 185 74.501 187.27 77.959 190.045C84.922 195.634 91.232 199.191 100.999 203.034L107.498 205.591L109.193 220.546C110.125 228.771 110.913 236.512 110.944 237.75C111 239.992 111.059 240 127.863 240L144.726 240L145.878 229.75M118 166.569C103.739 162.601 93.21 151.914 89.359 137.5C83.818 116.756 96.911 95.126 118.5 89.359C131.667 85.842 145.973 89.878 156.048 99.952C161.358 105.263 164.639 111.008 166.641 118.5C174.242 146.957 146.401 174.472 118 166.569M137 149.919C143.043 147.184 146.776 143.509 149.617 137.5C153.681 128.902 151.964 118.864 145.191 111.624C141.388 107.559 133.387 104.02 128 104.02C125.346 104.02 121.449 104.989 118.5 106.383C99.393 115.416 99.393 140.584 118.5 149.617C124.683 152.54 130.983 152.643 137 149.919" />
    <glyph glyph-name="settings"
      unicode="&#xEA30;"
      horiz-adv-x="256" d="M181.5 254.15C172.686 251.479 168.554 249.529 161.146 244.54C153.944 239.692 149.679 235.029 144.349 226.181C138.649 216.717 136.742 209.2 136.539 195.398L136.362 183.296L126.931 174.679L117.5 166.062L78.749 204.777L39.999 243.492L22.254 225.747L4.508 208.001L42.351 170.149L80.194 132.296L74.847 127.3C71.906 124.552 55.775 109.811 39 94.544C22.225 79.276 7.043 64.976 5.263 62.767C0.145 56.418 -1.229 48.895 1.215 40.616C2.166 37.395 5.701 33.161 17.465 21.15C25.734 12.707 34.336 4.722 36.581 3.404C45.027 -1.555 56.766 -0.349 64.163 6.238C67.383 9.106 98.568 43.101 164 115.072L183.5 136.521L196 136.541C207.025 136.558 209.295 136.866 215.242 139.153C236.077 147.166 249.713 162.526 254.448 183.312C257.065 194.797 256.381 202.679 251.325 219.312L248.647 228.124L232.321 211.821L215.995 195.517L205.756 205.756L195.517 215.995L211.82 232.32L228.123 248.645L217.311 252.008C203.75 256.226 190.891 256.995 181.5 254.15M184.494 227.994L172.519 215.987L194.253 194.253L215.987 172.519L227.994 184.494C241.187 197.652 241.635 197.697 238.467 185.535C236.263 177.074 232.508 170.789 225.879 164.466C214.57 153.679 200.601 149.87 185.5 153.456L178.5 155.118L175.5 151.735C173.85 149.874 145.374 118.573 112.221 82.176C56.151 20.62 51.717 16.001 48.721 16.021C45.944 16.039 43.466 18.008 30.75 30.302C15.722 44.832 14.679 46.394 16.625 51.465C17.085 52.665 121.354 148.38 151.802 175.553L155.103 178.5L153.566 185C150.903 196.267 152.017 206.232 157.042 216.082C160.503 222.866 163.029 225.838 169.433 230.659C177.673 236.863 184.723 239.569 193.484 239.89C196.26 239.992 195.63 239.159 184.494 227.994M72.993 187.507L105.474 155.015L98.987 149.078L92.5 143.141L60.017 175.556L27.533 207.97L33.485 213.985C36.759 217.293 39.679 220 39.974 220C40.27 220 55.128 205.378 72.993 187.507M182.004 113.504L176.576 108.008L202.695 81.754C227.958 56.361 228.87 55.307 230.521 49.604C236.395 29.305 218.693 11.587 198.425 17.479C192.766 19.124 191.61 20.118 167.478 44.08L142.41 68.973L136.682 63.184L130.954 57.395L156.227 32.376C184.031 4.851 186.929 2.751 199.878 0.747C227.518 -3.531 251.535 20.457 247.26 48.073C245.236 61.154 243.256 63.866 214.646 92.75C200.346 107.187 188.372 119 188.039 119C187.705 119 184.989 116.527 182.004 113.504" />
    <glyph glyph-name="preferences"
      unicode="&#xEA31;"
      horiz-adv-x="256" d="M56 240L56 224L28 224L0 224L0 216L0 208L28 208L56 208L56 192L56 176L84 176L112 176L112 216L112 256L84 256L56 256L56 240M96 216L96 192L84 192L72 192L72 216L72 240L84 240L96 240L96 216M128 216L128 208L192 208L256 208L256 216L256 224L192 224L128 224L128 216M144 152L144 136L72 136L0 136L0 128L0 120L72 120L144 120L144 104L144 88L172 88L200 88L200 128L200 168L172 168L144 168L144 152M184 128L184 104L172 104L160 104L160 128L160 152L172 152L184 152L184 128M216 128L216 120L236 120L256 120L256 128L256 136L236 136L216 136L216 128M56 64L56 48L28 48L0 48L0 40L0 32L28 32L56 32L56 16L56 0L84 0L112 0L112 40L112 80L84 80L56 80L56 64M96 40L96 16L84 16L72 16L72 40L72 64L84 64L96 64L96 40M128 40L128 32L192 32L256 32L256 40L256 48L192 48L128 48L128 40" />
    <glyph glyph-name="menu"
      unicode="&#xEA32;"
      horiz-adv-x="256" d="M120 200L120 192L184 192L248 192L248 200L248 208L184 208L120 208L120 200M8 128L8 120L128 120L248 120L248 128L248 136L128 136L8 136L8 128M8 56L8 48L72 48L136 48L136 56L136 64L72 64L8 64L8 56" />
    <glyph glyph-name="menu-8"
      unicode="&#xEA33;"
      horiz-adv-x="256" d="M8 200L8 192L128 192L248 192L248 200L248 208L128 208L8 208L8 200M8 128L8 120L128 120L248 120L248 128L248 136L128 136L8 136L8 128M8 56L8 48L128 48L248 48L248 56L248 64L128 64L8 64L8 56" />
    <glyph glyph-name="menu-4"
      unicode="&#xEA34;"
      horiz-adv-x="256" d="M8 200L8 192L128 192L248 192L248 200L248 208L128 208L8 208L8 200M8 128L8 120L128 120L248 120L248 128L248 136L128 136L8 136L8 128M8 56L8 48L72 48L136 48L136 56L136 64L72 64L8 64L8 56" />
    <glyph glyph-name="bullet-list-67"
      unicode="&#xEA35;"
      horiz-adv-x="256" d="M30.3 246.199C19.437 242.318 12.515 235.018 9.339 224.095C6.371 213.886 9.738 201.328 17.533 193.533C29.692 181.375 50.308 181.375 62.467 193.533C71.585 202.651 74.27 217.551 68.874 229.086C62.024 243.729 44.788 251.376 30.3 246.199M49.317 228.707C59.059 221.277 57.513 206.793 46.415 201.527C35.748 196.465 22.927 205.788 24.262 217.635C25.624 229.716 39.788 235.976 49.317 228.707M96 216L96 208L172 208L248 208L248 216L248 224L172 224L96 224L96 216M30.3 158.199C19.437 154.318 12.515 147.018 9.339 136.095C6.371 125.886 9.738 113.328 17.533 105.533C29.692 93.375 50.308 93.375 62.467 105.533C74.625 117.692 74.625 138.308 62.467 150.467C54.333 158.6 40.637 161.893 30.3 158.199M49.317 140.707C59.059 133.277 57.513 118.793 46.415 113.527C35.748 108.465 22.927 117.788 24.262 129.635C25.624 141.716 39.788 147.976 49.317 140.707M96 128L96 120L172 120L248 120L248 128L248 136L172 136L96 136L96 128M30.3 70.199C19.437 66.318 12.515 59.018 9.339 48.095C6.371 37.886 9.738 25.328 17.533 17.533C29.692 5.375 50.308 5.375 62.467 17.533C74.625 29.692 74.625 50.308 62.467 62.467C54.333 70.6 40.637 73.893 30.3 70.199M49.317 52.707C59.059 45.277 57.513 30.793 46.415 25.527C35.748 20.465 22.927 29.788 24.262 41.635C25.624 53.716 39.788 59.976 49.317 52.707M96 40L96 32L172 32L248 32L248 40L248 48L172 48L96 48L96 40" />
    <glyph glyph-name="list"
      unicode="&#xEA36;"
      horiz-adv-x="256" d="M24 128L24 0L128 0L232 0L232 128L232 256L128 256L24 256L24 128M216 128L216 16L128 16L40 16L40 128L40 240L128 240L216 240L216 128M91.766 199.276L80.042 187.553L76.003 191.497L71.963 195.442L66.24 189.719L60.517 183.996L70.26 174.253L80.003 164.51L97.733 182.24L115.462 199.969L110.015 205.485C107.019 208.518 104.326 211 104.029 211C103.732 211 98.214 205.724 91.766 199.276M128 184L128 176L160 176L192 176L192 184L192 192L160 192L128 192L128 184M91.766 143.276L80.042 131.553L76.003 135.497L71.963 139.442L66.24 133.719L60.517 127.996L70.26 118.253L80.003 108.51L97.733 126.24L115.462 143.969L110.015 149.485C107.019 152.518 104.326 155 104.029 155C103.732 155 98.214 149.724 91.766 143.276M128 128L128 120L160 120L192 120L192 128L192 136L160 136L128 136L128 128M64 72L64 64L80 64L96 64L96 72L96 80L80 80L64 80L64 72M128 72L128 64L160 64L192 64L192 72L192 80L160 80L128 80L128 72" />
    <glyph glyph-name="save-to-list"
      unicode="&#xEA37;"
      horiz-adv-x="256" d="M8 224L8 216L128 216L248 216L248 224L248 232L128 232L8 232L8 224M8 160L8 152L128 152L248 152L248 160L248 168L128 168L8 168L8 160M192 92L192 72L172 72L152 72L152 64L152 56L172 56L192 56L192 36L192 16L200 16L208 16L208 36L208 56L228 56L248 56L248 64L248 72L228 72L208 72L208 92L208 112L200 112L192 112L192 92M8 96L8 88L68 88L128 88L128 96L128 104L68 104L8 104L8 96M8 32L8 24L68 24L128 24L128 32L128 40L68 40L8 40L8 32" />
    <glyph glyph-name="rotate-right"
      unicode="&#xEA38;"
      horiz-adv-x="256" d="M78.5 247.374C77.4 247.158 74.025 246.488 71 245.887C52.748 242.258 31.883 225.176 23.094 206.665C17.137 194.12 16.722 191.175 16.265 158.25L15.846 128L23.923 128L32 128L32.017 154.25C32.037 183.669 32.898 190.221 38.161 201C42.654 210.201 53.118 220.777 62.321 225.419C74.036 231.326 79.242 231.963 115.988 231.983L148.477 232L132.5 216L116.523 199.999L122.266 194.256L128.009 188.513L157.752 218.256L187.496 248L133.998 247.884C104.574 247.82 79.6 247.591 78.5 247.374M80 88L80 8L160 8L240 8L240 88L240 168L160 168L80 168L80 88M224 88L224 24L160 24L96 24L96 88L96 152L160 152L224 152L224 88" />
    <glyph glyph-name="clock"
      unicode="&#xEA39;"
      horiz-adv-x="256" d="M111.635 254.935C63.315 248.238 22.143 214.556 7.104 169.42C1.966 154 0.556 145.08 0.556 128C0.556 105.587 4.917 87.291 14.609 69.041C33.143 34.146 64.68 10.615 104 2.344C115.734 -0.125 140.266 -0.125 152 2.344C191.32 10.615 222.857 34.146 241.391 69.041C251.083 87.291 255.444 105.587 255.444 128C255.444 150.413 251.083 168.709 241.391 186.959C222.946 221.687 191.061 245.557 152.5 253.506C142.876 255.49 121.126 256.251 111.635 254.935M144.672 238.504C206.069 228.546 248.245 171.384 238.504 111.328C228.546 49.931 171.384 7.755 111.328 17.496C49.931 27.454 7.755 84.616 17.496 144.672C27.453 206.067 84.619 248.244 144.672 238.504M120 164L120 120L164 120L208 120L208 128L208 136L172 136L136 136L136 172L136 208L128 208L120 208L120 164" />
    <glyph glyph-name="time-alarm"
      unicode="&#xEA3A;"
      horiz-adv-x="256" d="M30.002 225.502L4.518 200.004L10.263 194.258L16.008 188.513L41.736 214.241L67.463 239.968L62.016 245.484C59.02 248.518 56.325 251 56.027 251C55.729 251 44.018 239.526 30.002 225.502M193.984 245.484L188.537 239.968L214.264 214.241L239.992 188.513L245.737 194.258L251.482 200.004L225.998 225.502C211.982 239.526 200.271 251 199.973 251C199.675 251 196.98 248.518 193.984 245.484M111.235 230.57C88.336 226.206 70.523 216.982 54.762 201.325C41.547 188.198 32.285 172.05 27.331 153.5C24.982 144.704 24.661 141.634 24.661 128C24.661 114.366 24.982 111.296 27.331 102.5C31.496 86.907 41.814 67.342 50.021 59.48C51.659 57.91 53 56.25 53 55.791C53 55.331 46.865 47.3 39.368 37.943C31.87 28.587 25.907 20.803 26.118 20.645C26.328 20.487 29.131 18.251 32.346 15.675L38.193 10.993L51.174 27.246C58.314 36.186 64.46 43.816 64.831 44.203C65.203 44.59 67.53 43.524 70.003 41.834C77.851 36.471 92.164 30.082 102.5 27.326C111.289 24.984 114.377 24.661 128 24.661C141.623 24.661 144.711 24.984 153.5 27.326C163.836 30.082 178.149 36.471 185.997 41.834C188.47 43.524 190.797 44.59 191.169 44.203C191.54 43.816 197.686 36.186 204.826 27.246L217.807 10.993L223.654 15.675C226.869 18.251 229.672 20.487 229.882 20.645C230.093 20.803 224.13 28.587 216.632 37.943C209.135 47.3 203 55.331 203 55.791C203 56.25 204.341 57.91 205.979 59.48C214.186 67.342 224.504 86.907 228.669 102.5C231.018 111.296 231.339 114.366 231.339 128C231.339 141.634 231.018 144.704 228.669 153.5C223.715 172.05 214.453 188.198 201.238 201.325C187.752 214.722 171.676 223.901 153.5 228.584C141.066 231.787 122.26 232.671 111.235 230.57M149.5 213.179C181.854 204.419 205.289 180.586 213.59 148C216.23 137.634 216.23 118.366 213.59 108C206.545 80.346 187.636 57.869 162.5 47.272C150.424 42.181 141.86 40.5 128 40.5C103.692 40.5 82.934 49.029 65.981 65.981C49.029 82.934 40.5 103.692 40.5 128C40.5 152.308 49.029 173.066 65.981 190.019C79.548 203.585 95.219 211.382 117 215.403C122.439 216.406 142.701 215.02 149.5 213.179M120 156L120 120L156 120L192 120L192 128L192 136L164 136L136 136L136 164L136 192L128 192L120 192L120 156" />
    <glyph glyph-name="calendar-2"
      unicode="&#xEA3B;"
      horiz-adv-x="256" d="M56 244.088L56 232.176L40.25 231.838C25.728 231.526 24.064 231.296 18.914 228.88C11.813 225.55 6.45 220.187 3.12 213.086L0.5 207.5L0.5 120L0.5 32.5L3.12 26.914C6.45 19.813 11.813 14.45 18.914 11.12L24.5 8.5L128 8.5L231.5 8.5L237.086 11.12C240.159 12.561 244.38 15.447 246.467 17.533C248.553 19.62 251.439 23.841 252.88 26.914L255.5 32.5L255.5 120L255.5 207.5L252.88 213.086C249.55 220.187 244.187 225.55 237.086 228.88C231.936 231.296 230.272 231.526 215.75 231.838L200 232.176L200 244.088L200 256L192 256L184 256L184 244L184 232L128 232L72 232L72 244L72 256L64 256L56 256L56 244.088M56 204L56 192L64 192L72 192L72 204L72 216L128 216L184 216L184 204L184 192L192 192L200 192L200 204.072L200 216.144L214.832 215.822C229.162 215.511 229.783 215.409 233.191 212.806C239.326 208.122 240 205.429 240 185.599L240 168L127.939 168L15.879 168L16.189 186.831C16.497 205.498 16.523 205.693 19.18 209.172C23.675 215.061 26.695 215.951 42.25 215.977L56 216L56 204M239.773 93.171L239.5 34.343L236.806 30.812C231.269 23.553 238.408 24 128 24C17.592 24 24.731 23.553 19.194 30.812L16.5 34.343L16.227 93.171L15.954 152L128 152L240.046 152L239.773 93.171" />
    <glyph glyph-name="refresh-01"
      unicode="&#xEA3C;"
      horiz-adv-x="256" d="M206.817 234.325L192.136 219.644L188.237 222.224C167.373 236.032 135.445 242.849 111.364 238.637C61.741 229.959 26.071 194.488 17.491 145.29C11.567 111.32 23.856 73.969 49.224 48.838C83.67 14.715 135.117 6.456 178.256 28.125C189.117 33.58 197.064 39.341 206.734 48.767C215.91 57.712 222.132 66.194 227.839 77.542C232.488 86.784 237.4 101.052 236.268 102.024C235.846 102.387 232.8 103.262 229.5 103.969C226.2 104.676 222.993 105.45 222.373 105.687C221.74 105.93 220.964 104.666 220.605 102.81C219.476 96.975 213.098 82.705 208.623 76.002C186.895 43.457 149.942 27.139 112.381 33.505C81.025 38.819 55.145 58.427 41.518 87.194C21.552 129.343 34.14 177.784 72.37 205.921C80.086 211.599 94.872 218.537 104.508 221.002C125.607 226.398 152.092 223.595 171 213.963C182.02 208.35 182.461 210.072 165.692 193.231L150.883 178.359L191.497 172.568C213.834 169.383 232.363 167.03 232.672 167.339C233.105 167.771 222.659 244.865 221.709 248.253C221.593 248.667 214.891 242.4 206.817 234.325" />
    <glyph glyph-name="refresh-02"
      unicode="&#xEA3D;"
      horiz-adv-x="256" d="M206.817 234.325L192.136 219.644L188.237 222.224C177.955 229.028 164.084 234.589 150.189 237.478C100.881 247.729 50.715 223.153 27.757 177.5C21.536 165.131 16 143.878 16 132.369L16 128L23.896 128L31.792 128L32.512 136.25C34.87 163.274 49.006 188.542 70.841 204.76C90.218 219.153 113.992 225.731 137.683 223.254C149.341 222.035 162.186 218.453 171 213.963C182.02 208.35 182.461 210.072 165.692 193.231L150.883 178.359L191.497 172.568C213.834 169.383 232.363 167.03 232.672 167.339C233.105 167.771 222.659 244.865 221.709 248.253C221.593 248.667 214.891 242.4 206.817 234.325M223.252 118.25C221.655 105.131 219.717 98.246 214.557 87.352C202.278 61.431 178.872 42.001 151.492 34.998C130.393 29.602 103.908 32.405 85 42.037C73.98 47.65 73.539 45.928 90.308 62.769L105.117 77.641L64.503 83.432C42.166 86.617 23.639 88.973 23.333 88.667C23.027 88.361 25.383 69.834 28.568 47.497L34.359 6.883L49.116 21.616L63.874 36.349L67.768 33.772C78.044 26.972 91.918 21.41 105.811 18.522C155.119 8.271 205.285 32.847 228.243 78.5C234.464 90.869 240 112.122 240 123.631L240 128L232.22 128L224.439 128L223.252 118.25" />
    <glyph glyph-name="cloud-data-sync"
      unicode="&#xEA3E;"
      horiz-adv-x="256" d="M137.5 230.921C115.405 227.884 95.248 217.725 77.939 200.905C71.83 194.968 63.251 183.297 59.265 175.5C56.321 169.743 51 154.491 51 151.812C51 150.753 50.273 150 49.25 149.999C47.191 149.999 38.359 146.734 32.946 143.973C26.306 140.585 17.638 132.562 12.35 124.909C4.24 113.17 1.395 105.107 0.387 91C-0.291 81.52 1.948 70.163 6.418 60.397C13.883 44.092 30.656 30.497 49 25.883C56.79 23.924 162.598 23.864 171.5 25.814C190.478 29.971 208.454 39.015 221.673 51.056C227.271 56.156 236.956 67.912 240.767 74.234C251.808 92.55 257.372 117.183 255.113 137.75C253.811 149.608 251.971 156.869 247.466 167.923C240.065 186.087 227.887 201.351 211.635 212.834C200.125 220.967 187.234 226.64 173.5 229.617C164.686 231.528 146.661 232.181 137.5 230.921M173.5 213.014C199.298 206.372 219.963 189.173 231.561 164.691C237.379 152.412 239.272 143.404 239.272 128C239.272 117.328 238.821 112.824 237.12 106.5C228.652 75.019 205.315 51.661 173.5 42.824C165.79 40.682 163.593 40.588 112.927 40.238C54.634 39.834 52.369 40.021 40.811 46.181C33.567 50.042 25.225 58.86 21.205 66.906C12.127 85.072 15.827 106.985 30.444 121.621C33.806 124.987 38.826 128.891 41.6 130.297C47.043 133.055 57.229 136 61.327 136C64.129 136 64.04 135.805 66.48 147.24C69.277 160.347 74.549 171.415 83.481 182.931C95.793 198.805 115.373 210.613 135.834 214.504C145.91 216.42 162.879 215.749 173.5 213.014M126.108 158.982C112.916 156.201 98.53 144.956 93.294 133.331C91.601 129.574 89.953 125.338 89.632 123.919C89.069 121.436 89.289 121.292 95.389 120.169C104.463 118.497 104.545 118.521 106.42 123.429C111.016 135.464 122.451 143.5 134.979 143.5C142.393 143.5 149.352 141.757 153.006 138.984L155.5 137.092L149.75 131.267C143.93 125.371 143.027 123.373 145.2 121.2C146.888 119.512 181.112 119.512 182.8 121.2C184.488 122.888 184.488 157.112 182.8 158.8C180.639 160.961 178.638 160.079 172.962 154.463L167.366 148.925L161.541 152.433C151.472 158.496 136.732 161.221 126.108 158.982M166.351 102.25C164.48 94.754 158.175 87.735 149 82.933C141.334 78.921 125.585 80.014 118.994 85.016L116.5 86.908L122.25 92.733C128.07 98.629 128.973 100.627 126.8 102.8C125.112 104.488 90.888 104.488 89.2 102.8C88.362 101.962 88 96.519 88 84.734C88 61.608 89.074 60.113 98.93 69.514L104.711 75.028L110.605 71.479C129.954 59.827 152.528 62.272 169.147 77.819C175.474 83.737 180.632 92.416 182.361 100.052C182.92 102.521 182.713 102.642 175.951 103.802C166.81 105.369 167.144 105.423 166.351 102.25" />
    <glyph glyph-name="pin-sync"
      unicode="&#xEA3F;"
      horiz-adv-x="256" d="M90.539 254.888C70.813 252.014 52.306 243.054 38.112 229.506C27.544 219.418 22.886 213.138 17.429 201.618C6.885 179.359 5.364 156.078 12.98 133.5C23.138 103.385 51.691 60.942 89.081 20.377C96.877 11.92 103.565 5 103.944 5C104.82 5 124.156 25.645 132.732 35.735L139.245 43.4L133.873 48.168C130.918 50.791 127.97 52.951 127.323 52.968C126.675 52.986 125.181 51.774 124.002 50.275C119.638 44.727 104.522 28 103.873 28C102.647 28 80.063 54.543 69.301 68.633C42.112 104.227 28.423 129.867 24.861 151.869C22.812 164.525 26.227 184.725 32.501 197.059C36.028 203.991 44.58 214.436 51.714 220.523C65.347 232.155 86.406 240 104 240C121.594 240 142.653 232.155 156.286 220.523C163.698 214.198 172.117 203.802 175.74 196.5C183.42 181.02 185.828 159.085 181.586 143.247L180.179 137.993L182.84 137.394C184.303 137.064 187.838 136.215 190.695 135.507L195.889 134.219L197.57 141.359C200.846 155.273 200.445 171.194 196.432 186.602C194.371 194.514 187.151 209.537 182.242 216.13C177.093 223.043 163.785 235.884 158 239.52C137.151 252.624 112.909 258.147 90.539 254.888M94.3 190.199C83.437 186.318 76.515 179.018 73.339 168.095C70.371 157.886 73.738 145.328 81.533 137.533C93.692 125.375 114.308 125.375 126.467 137.533C138.625 149.692 138.625 170.308 126.467 182.467C118.333 190.6 104.637 193.893 94.3 190.199M113.317 172.707C123.059 165.277 121.513 150.793 110.415 145.527C99.748 140.465 86.927 149.788 88.262 161.635C89.624 173.716 103.788 179.976 113.317 172.707M240.651 105.866C236.576 101.401 233.646 98.967 232.82 99.361C232.094 99.706 229.358 101.536 226.739 103.427C216.625 110.73 203.217 113.401 190.374 110.673C180.534 108.583 173.629 104.814 166.407 97.593C157.909 89.094 154.293 81.579 152.53 68.75L151.877 64L159.71 64L167.542 64L168.712 70.156C172.546 90.33 195.761 101.966 213.563 92.636C223.479 87.439 223.421 87.977 214.986 79.486L207.55 72L227.775 72L248 72L248 92.5C248 103.775 247.811 113 247.581 113C247.351 113 244.232 109.79 240.651 105.866M231.763 51.591C230.677 41.952 222.943 31.613 213.25 26.839C209.399 24.943 206.89 24.5 200 24.5C191.162 24.5 186.117 26.176 180.076 31.119L177.652 33.102L185.051 40.551L192.45 48L172.225 48L152 48L152.047 27.25L152.095 6.5L158.997 13.876C163.24 18.411 166.4 21.013 167.2 20.632C167.915 20.29 170.642 18.464 173.261 16.573C186.774 6.816 206.411 5.6 222.098 13.55C228.954 17.024 238.975 27.044 242.448 33.897C244.909 38.755 247.939 49.897 247.983 54.25C247.998 55.77 246.965 56 240.13 56L232.26 56L231.763 51.591" />
    <glyph glyph-name="send"
      unicode="&#xEA40;"
      horiz-adv-x="256" d="M140 212.913C80.325 191.535 24.418 171.508 15.761 168.408C7.105 165.308 0.253 162.4 0.534 161.944C0.816 161.489 17.006 149.322 36.513 134.906L71.981 108.696L72.24 62.037L72.5 15.379L94 33.232C105.825 43.051 116.838 52.126 118.473 53.399L121.445 55.714L116.141 61.837L110.837 67.96L99.419 58.454L88 48.947L88 72.474C88 85.413 88.266 96 88.591 96C88.916 96 115.353 76.643 147.341 52.984L205.5 9.967L206.234 13.734C208.946 27.659 250 250.242 250 251.023C250 251.56 249.662 251.951 249.25 251.891C248.838 251.831 199.675 234.291 140 212.913M211.514 129.893C202.421 80.727 194.873 39.93 194.741 39.234C194.559 38.278 99.023 107.708 94.642 111.98C94.17 112.44 123.87 136.892 160.642 166.317C197.414 195.743 227.623 219.698 227.774 219.552C227.924 219.406 220.608 179.059 211.514 129.893M139.003 169.4C92.81 132.438 80.405 122.975 79.027 123.65C75.672 125.292 32.911 157.471 33.701 157.759C53.245 164.898 195.769 215.846 196.371 215.909C196.85 215.959 171.034 195.03 139.003 169.4" />
    <glyph glyph-name="send-message"
      unicode="&#xEA41;"
      horiz-adv-x="256" d="M229 245.11C216.075 240.881 159.268 222.589 102.763 204.461C21.499 178.389 0.023 171.156 0.013 169.852C0.004 168.728 16.424 158.619 51.75 138C80.212 121.388 104.335 106.994 105.356 106.014C106.378 105.033 120.859 80.892 137.537 52.366C158.237 16.959 168.438 0.416 169.68 0.235C171.255 0.005 175.505 12.5 201.305 93.235C217.698 144.531 235.976 201.462 241.923 219.75C247.869 238.038 252.682 252.955 252.617 252.899C252.553 252.844 241.925 249.339 229 245.11M160.552 172.052L110.611 122.103L105.013 125.302C80.307 139.418 36.24 165.574 36.585 165.918C37.075 166.409 207.988 221.74 209.496 221.897C210.044 221.953 188.019 199.523 160.552 172.052M194.398 123.976C179.282 76.964 166.689 37.85 166.414 37.056C165.817 35.331 167.412 32.772 141.84 76.476L121.96 110.453L171.687 160.187C199.036 187.54 221.518 209.815 221.647 209.686C221.776 209.557 209.514 170.987 194.398 123.976" />
    <glyph glyph-name="mail"
      unicode="&#xEA42;"
      horiz-adv-x="256" d="M22.3 230.148C15.116 227.652 9.567 223.572 5.969 218.139C-0.208 208.814 -0.075 210.952 0.226 125.912L0.5 48.5L3.12 42.914C6.45 35.813 11.813 30.45 18.914 27.12L24.5 24.5L128 24.5L231.5 24.5L237.086 27.12C240.159 28.561 244.38 31.447 246.467 33.533C248.553 35.62 251.439 39.841 252.88 42.914L255.5 48.5L255.5 128L255.5 207.5L252.88 213.086C249.55 220.187 244.187 225.55 237.086 228.88L231.5 231.5L129.5 231.727C33.39 231.941 27.2 231.85 22.3 230.148M226 215.565C226 214.699 129.135 139 128.027 139C127.021 139 36.51 209.49 31.528 214.154C29.609 215.95 32.239 216 127.778 216C181.8 216 226 215.804 226 215.565M76.87 158C104.497 136.275 127.415 118.394 127.8 118.265C128.185 118.136 153.25 137.539 183.5 161.385C213.75 185.23 238.846 204.43 239.268 204.051C239.691 203.673 239.916 168.934 239.768 126.853L239.5 50.343L236.806 46.812C231.269 39.553 238.408 40 128 40C17.592 40 24.731 39.553 19.194 46.812L16.5 50.343L16.231 126.402C16.084 168.234 16.197 203.07 16.482 203.815C16.857 204.791 18.345 204.1 21.82 201.334C24.471 199.225 49.243 179.725 76.87 158" />
    <glyph glyph-name="newsletter"
      unicode="&#xEA43;"
      horiz-adv-x="256" d="M39.984 214.25L39.968 172.5L19.984 161.029L0 149.558L0 74.779L0 0L128 0L256 0L256 74.785L256 149.57L236.031 161.035L216.062 172.5L216.031 214.25L216 256L128 256L40 256L39.984 214.25M199.758 183.907L199.5 127.815L162.679 107.907C142.427 96.958 125.387 88 124.812 88C124.237 88 108.534 96.662 89.916 107.25L56.066 126.5L56.033 183.25L56 240L128.008 240L200.017 240L199.758 183.907M80 200L80 192L128 192L176 192L176 200L176 208L128 208L80 208L80 200M80 160L80 152L128 152L176 152L176 160L176 168L128 168L80 168L80 160M40 144.924L40 135.847L32.773 139.856C28.798 142.06 25.417 144.249 25.26 144.72C25.047 145.358 38.295 153.819 39.75 153.973C39.888 153.988 40 149.916 40 144.924M228.75 146.779C229.988 146.174 231 145.398 231 145.054C231 144.571 222.739 140.01 216.75 137.187C216.338 136.992 216 140.705 216 145.437L216 154.04L221.25 150.96C224.137 149.265 227.512 147.384 228.75 146.779M119.5 72.009C172.85 41.633 216.688 16.604 216.917 16.39C217.146 16.175 172.033 16 116.667 16L16 16L16 73.582L16 131.163L19.25 129.201C21.038 128.122 66.15 102.386 119.5 72.009M240 76.424L240 21.847L233.167 25.674C204.549 41.699 142.044 77.601 142.025 78.025C141.999 78.576 237.95 130.776 239.25 130.918C239.662 130.963 240 106.441 240 76.424" />
    <glyph glyph-name="file-edit"
      unicode="&#xEA44;"
      horiz-adv-x="256" d="M16 128L16 0L44 0L72 0L72 8L72 16L52 16L32 16L32 128L32 240L128 240L224 240L224 204L224 168L232 168L240 168L240 212L240 256L128 256L16 256L16 128M160.251 115.75L113.01 68.5L102.122 35.869L91.235 3.238L123.876 14.123L156.517 25.009L204.002 72.502L251.487 119.995L230.002 141.498C218.186 153.324 208.287 163 208.005 163C207.723 163 186.234 141.737 160.251 115.75M218.507 129.993L228.477 119.986L188.001 79.501L147.525 39.016L132.581 34.023C124.362 31.277 117.499 29.168 117.33 29.337C117.161 29.506 119.272 36.361 122.021 44.572L127.019 59.5L167.255 99.75C189.385 121.887 207.726 140 208.014 140C208.302 140 213.024 135.497 218.507 129.993" />
    <glyph glyph-name="attach"
      unicode="&#xEA45;"
      horiz-adv-x="256" d="M158 246.875C151.029 245.746 144.006 242.765 137 237.96C128.409 232.068 32.197 134.698 28.165 127.815C19.973 113.83 16.677 101.772 16.737 86C16.789 72.488 18.801 64.082 25.062 51.218C45.078 10.096 95.66 -3.959 136.815 20.167C140.841 22.527 157.168 38.078 192.764 73.457L243.028 123.414L237.291 129.211L231.554 135.009L181.527 85.166C151.041 54.792 129.699 34.299 126.89 32.701C124.355 31.26 118.73 28.855 114.39 27.357C107.51 24.982 104.964 24.634 94.5 24.634C84.111 24.634 81.468 24.99 74.814 27.288C59.22 32.674 45.741 44.429 39.024 58.5C34.143 68.723 32.653 75.296 32.676 86.5C32.71 103.303 37.594 115.762 49.389 129.138C53.444 133.737 76.278 156.897 100.131 180.605C140.891 221.117 143.951 223.929 151 227.351C163.364 233.353 176.747 233.251 188.879 227.062C194.852 224.015 202.006 216.204 205.418 209.003C208.28 202.965 208.5 201.714 208.5 191.5C208.5 173.612 210.567 176.381 157.111 122.677C132.025 97.474 110.285 76.212 108.8 75.427C105.025 73.432 97.162 73.635 92.984 75.834C91.068 76.843 88.037 79.819 86.25 82.447C82.602 87.812 81.956 93.642 84.386 99.282C85.149 101.052 105.605 122.75 129.844 147.5L173.915 192.5L168.296 198.193L162.676 203.885L134.607 175.193C119.169 159.412 99.056 138.85 89.912 129.5C70.247 109.393 67.884 105.644 67.224 93.5C66.841 86.462 67.108 84.778 69.442 79.5C72.843 71.808 79.888 64.546 87.5 60.886C95.189 57.19 104.94 56.905 113.712 60.122C119.132 62.109 122.415 65.147 165.312 107.872C195.006 137.446 212.654 155.787 215.47 160C221.497 169.016 224.214 177.445 224.784 188.899C225.347 200.212 224.039 206.927 219.35 216.793C208.614 239.382 184.559 251.177 158 246.875" />
    <glyph glyph-name="reply"
      unicode="&#xEA46;"
      horiz-adv-x="256" d="M62.183 193.683L4.866 136.359L62.183 74.442L119.5 12.524L119.762 50.262L120.024 88L124.262 87.992C126.593 87.988 133.871 87.314 140.436 86.495C173.868 82.325 191.807 76.031 211.257 61.648C224.488 51.863 234.493 39.437 251.73 11.384L255.96 4.5L255.98 25.538C256.031 79.378 245.256 112.521 219.115 138.93C198.523 159.732 171.219 171.103 132.262 175.101L120.024 176.357L119.762 213.682L119.5 251.007L62.183 193.683M111.767 159.99C153.41 159.934 184.523 149.746 206.343 129.019C221.329 114.783 229.578 99.323 235.557 74.258C239.317 58.494 239.214 58.29 231.25 65.742C204.993 90.309 170.959 102.009 120.767 103.721L104.034 104.292L103.767 78.698L103.5 53.104L65.341 94.302L27.183 135.5L65.341 173.756L103.5 212.011L103.767 186.006L104.033 160L111.767 159.99" />
    <glyph glyph-name="reply-all"
      unicode="&#xEA47;"
      horiz-adv-x="256" d="M58.185 189.685L4.877 136.37L23.16 116.435C33.216 105.471 57.129 79.503 76.302 58.729L111.16 20.959L114.83 23.88C116.848 25.486 119.528 27.904 120.785 29.252L123.07 31.703L75.152 83.72L27.235 135.737L75.35 183.852L123.464 231.967L118.016 237.483C115.02 240.518 112.326 243 112.031 243C111.735 243 87.504 219.008 58.185 189.685M98.185 189.685L44.869 136.362L98.185 78.449L151.5 20.536L151.764 53.914L152.027 87.291L159.264 86.671C182.395 84.688 206.587 73.232 224.838 55.617C233.755 47.011 238.814 40.191 248.058 24.32L256.108 10.5L255.664 41C255.331 63.87 254.83 73.126 253.664 78C246.395 108.377 230.181 135.115 208.488 152.499C194.002 164.109 173.76 173.047 158.386 174.622L152.026 175.274L151.763 209.141L151.5 243.008L98.185 189.685M144.269 159.978C159.201 159.939 176.45 154.811 189.289 146.594C213.192 131.296 232.069 103.199 237.929 74.201C239.91 64.396 239.692 64.23 232.75 70.255C222.75 78.932 215.198 84.083 204.496 89.523C186.876 98.479 170.511 102.64 148.77 103.691L136.041 104.307L135.77 82.981L135.5 61.655L101.363 98.692L67.226 135.729L101.363 169.868L135.5 204.006L135.769 182.003L136.038 160L144.269 159.978" />
    </font>
</defs>
</svg>
